<svg width="24" height="24" viewBox="0 0 24 24" fill="none" xmlns="http://www.w3.org/2000/svg">
<path d="M5 5.55383L6.49611 4.77547C7.31899 4.34737 7.99646 3.9984 8.00162 4.00001C8.00678 4.00159 8.68354 4.35242 9.5055 4.7796L11 5.55632V6.44906C11 7.15664 10.9959 7.34 10.9803 7.33309C10.9694 7.32832 10.2937 6.9779 9.47874 6.55439L7.99694 5.78438L7.37929 6.10569C7.03958 6.2824 6.75645 6.43251 6.75014 6.43928C6.74384 6.44606 7.69742 6.94936 8.86923 7.55773L10.9998 8.66387L10.9999 9.55226L11 10.4407L9.4988 11.2203L7.99762 12L6.51078 11.2288C5.69303 10.8047 5.01855 10.4526 5.01197 10.4464C5.00538 10.4402 5.00183 10.0358 5.00407 9.54787L5.00816 8.66066L5.47393 8.90246L6.96869 9.67873L7.99767 10.2132L8.62891 9.88606C8.97609 9.70612 9.25552 9.55392 9.24985 9.54782C9.24418 9.54172 8.28749 9.04229 7.12386 8.43797L5.00816 7.33919L5.00407 6.44651L5 5.55383Z" fill="#BAB8C0"/>
<path d="M5 5.55383L6.49611 4.77547C7.31899 4.34737 7.99646 3.9984 8.00162 4.00001C8.00678 4.00159 8.68354 4.35242 9.5055 4.7796L11 5.55632V6.44906C11 7.15664 10.9959 7.34 10.9803 7.33309C10.9694 7.32832 10.2937 6.9779 9.47874 6.55439L7.99694 5.78438L7.37929 6.10569C7.03958 6.2824 6.75645 6.43251 6.75014 6.43928C6.74384 6.44606 7.69742 6.94936 8.86923 7.55773L10.9998 8.66387L10.9999 9.55226L11 10.4407L9.4988 11.2203L7.99762 12L6.51078 11.2288C5.69303 10.8047 5.01855 10.4526 5.01197 10.4464C5.00538 10.4402 5.00183 10.0358 5.00407 9.54787L5.00816 8.66066L5.47393 8.90246L6.96869 9.67873L7.99767 10.2132L8.62891 9.88606C8.97609 9.70612 9.25552 9.55392 9.24985 9.54782C9.24418 9.54172 8.28749 9.04229 7.12386 8.43797L5.00816 7.33919L5.00407 6.44651L5 5.55383Z" fill="#BAB8C0"/>
<path d="M8 14C6.81331 14 5.65328 13.6481 4.66658 12.9888C3.67989 12.3295 2.91085 11.3925 2.45673 10.2961C2.0026 9.19975 1.88378 7.99335 2.11529 6.82946C2.3468 5.66558 2.91825 4.59648 3.75736 3.75736C4.59648 2.91825 5.66558 2.3468 6.82946 2.11529C7.99335 1.88378 9.19975 2.0026 10.2961 2.45673C11.3925 2.91085 12.3295 3.67989 12.9888 4.66658C13.6481 5.65328 14 6.81331 14 8" stroke-miterlimit="10" stroke-linecap="round"/>
<path d="M16 22C19.3137 22 22 19.3137 22 16C22 12.6863 19.3137 10 16 10C12.6863 10 10 12.6863 10 16C10 19.3137 12.6863 22 16 22Z" stroke-miterlimit="10" stroke-linecap="round"/>
<path d="M17.78 13.899C17.2603 13.8057 16.7339 13.7539 16.206 13.744C14.634 13.744 14.076 14.289 14.076 14.756C14.076 15.472 15.162 15.646 16.119 15.801C17.558 16.033 18.199 16.243 18.199 16.878C18.199 17.378 17.626 17.744 16.667 17.851C15.7701 17.9207 14.868 17.8354 14 17.599" stroke-miterlimit="10" stroke-linecap="round"/>
<path d="M16.1101 13.7V13" stroke-miterlimit="10" stroke-linecap="round"/>
<path d="M16.1101 18.598V17.898" stroke-miterlimit="10" stroke-linecap="round"/>
</svg>
