<svg width="24" height="24" viewBox="0 0 24 24" fill="none" xmlns="http://www.w3.org/2000/svg">
<path d="M4 3V6" stroke-linecap="round" stroke-linejoin="round"/>
<path d="M2.5 4.5H5.5" stroke-linecap="round" stroke-linejoin="round"/>
<path d="M14.5 1V4" stroke-linecap="round" stroke-linejoin="round"/>
<path d="M13 2.5H16" stroke-linecap="round" stroke-linejoin="round"/>
<path d="M21 3.5V6.5" stroke-linecap="round" stroke-linejoin="round"/>
<path d="M19.5 5H22.5" stroke-linecap="round" stroke-linejoin="round"/>
<path d="M3 10.5L6 6.5H18L21 10.5L12 21.5L3 10.5Z" stroke-linecap="round" stroke-linejoin="round"/>
<path d="M17 10.5H21" stroke-linecap="round" stroke-linejoin="round"/>
<path d="M5 10.5H9" stroke-linecap="round" stroke-linejoin="round"/>
<path d="M11 10.5H15" stroke-linecap="round" stroke-linejoin="round"/>
<path d="M7 8L9 10.5L12 19" stroke-linecap="round" stroke-linejoin="round"/>
<path d="M11 8L9 10.5" stroke-linecap="round" stroke-linejoin="round"/>
<path d="M13 8L15 10.5" stroke-linecap="round" stroke-linejoin="round"/>
<path d="M17 8L15 10.5L12.846 16.602" stroke-linecap="round" stroke-linejoin="round"/>
</svg>
