<svg width="24" height="24" viewBox="0 0 24 24" fill="none" xmlns="http://www.w3.org/2000/svg">
<path d="M16.5 18.5V14.5C16.5 14.2348 16.6054 13.9804 16.7929 13.7929C16.9804 13.6054 17.2348 13.5 17.5 13.5H20.5C20.7652 13.5 21.0196 13.6054 21.2071 13.7929C21.3946 13.9804 21.5 14.2348 21.5 14.5V18.5" stroke-linecap="round" stroke-linejoin="round"/>
<path d="M2.5 18.5V6.5C2.5 6.23478 2.60536 5.98043 2.79289 5.79289C2.98043 5.60536 3.23478 5.5 3.5 5.5H6.5C6.76522 5.5 7.01957 5.60536 7.20711 5.79289C7.39464 5.98043 7.5 6.23478 7.5 6.5V18.5" stroke-linecap="round" stroke-linejoin="round"/>
<path d="M9.5 18.5V12.5C9.5 12.2348 9.60536 11.9804 9.79289 11.7929C9.98043 11.6054 10.2348 11.5 10.5 11.5H13.5C13.7652 11.5 14.0196 11.6054 14.2071 11.7929C14.3946 11.9804 14.5 12.2348 14.5 12.5V18.5" stroke-linecap="round" stroke-linejoin="round"/>
<path d="M22.5 20.5H1.5" stroke-linecap="round" stroke-linejoin="round"/>
</svg>
