<svg width="24" height="24" viewBox="0 0 24 24" fill="none" xmlns="http://www.w3.org/2000/svg">
<path d="M9.238 8.96499C8.67647 8.85746 8.14945 8.61518 7.70224 8.25898C7.25503 7.90279 6.901 7.44332 6.67058 6.92008C6.44015 6.39684 6.34024 5.82547 6.37941 5.25508C6.41858 4.6847 6.59567 4.13235 6.89546 3.64552C7.19524 3.15869 7.60876 2.75194 8.10047 2.46022C8.59218 2.1685 9.14737 2.00055 9.71832 1.97079C10.2893 1.94103 10.8589 2.05036 11.3783 2.28938C11.8977 2.5284 12.3512 2.88996 12.7 3.34299" stroke-miterlimit="10" stroke-linecap="round"/>
<path d="M14.647 12.503C16.8561 12.503 18.647 10.7121 18.647 8.50299C18.647 6.29385 16.8561 4.50299 14.647 4.50299C12.4379 4.50299 10.647 6.29385 10.647 8.50299C10.647 10.7121 12.4379 12.503 14.647 12.503Z" stroke-miterlimit="10" stroke-linecap="round"/>
<path d="M2.447 15.3L6.819 14.051C8.52267 13.564 10.3398 13.6569 11.985 14.315L13.4 14.882C13.6942 14.9993 13.9379 15.2161 14.0888 15.4945C14.2398 15.7729 14.2883 16.0955 14.226 16.406V16.406C14.1899 16.5859 14.1178 16.7565 14.0139 16.9077C13.91 17.0589 13.7765 17.1874 13.6215 17.2856C13.4666 17.3837 13.2933 17.4494 13.1122 17.4787C12.9311 17.508 12.746 17.5003 12.568 17.456L9 16.565" stroke-linecap="round" stroke-linejoin="round"/>
<path d="M2.947 20.8L4.564 20.262C5.00259 20.1155 5.46578 20.057 5.92702 20.0898C6.38827 20.1225 6.83852 20.246 7.252 20.453L9.391 21.346C9.87817 21.55 10.4042 21.6445 10.9319 21.6229C11.4596 21.6013 11.9761 21.4641 12.445 21.221L20.75 16.921C21.0784 16.7517 21.332 16.4662 21.4614 16.1201C21.5908 15.7741 21.5867 15.3922 21.45 15.049V15.049C21.3132 14.7076 21.0547 14.4291 20.7244 14.2673C20.3941 14.1055 20.0156 14.0719 19.662 14.173L15.65 15.319" stroke-linecap="round" stroke-linejoin="round"/>
</svg>
