<svg width="24" height="24" viewBox="0 0 24 24" fill="none" xmlns="http://www.w3.org/2000/svg">
<path d="M9.23801 8.965C8.67649 8.85747 8.14947 8.6152 7.70226 8.259C7.25504 7.9028 6.90101 7.44334 6.67059 6.9201C6.44017 6.39685 6.34025 5.82548 6.37942 5.2551C6.41859 4.68471 6.59568 4.13237 6.89547 3.64554C7.19526 3.15871 7.60878 2.75195 8.10048 2.46024C8.59219 2.16852 9.14738 2.00056 9.71834 1.97081C10.2893 1.94105 10.8589 2.05038 11.3783 2.2894C11.8977 2.52842 12.3512 2.88998 12.7 3.343" stroke-miterlimit="10" stroke-linecap="round"/>
<path d="M14.647 12.503C16.8561 12.503 18.647 10.7121 18.647 8.50301C18.647 6.29387 16.8561 4.50301 14.647 4.50301C12.4379 4.50301 10.647 6.29387 10.647 8.50301C10.647 10.7121 12.4379 12.503 14.647 12.503Z" stroke-miterlimit="10" stroke-linecap="round"/>
<path d="M2.44699 15.3L6.81899 14.051C8.52266 13.564 10.3398 13.6569 11.985 14.315L13.4 14.882C13.6942 14.9993 13.9379 15.216 14.0888 15.4945C14.2398 15.7729 14.2883 16.0955 14.226 16.406V16.406C14.1899 16.5858 14.1177 16.7565 14.0139 16.9077C13.91 17.0589 13.7765 17.1874 13.6215 17.2856C13.4666 17.3837 13.2933 17.4494 13.1122 17.4787C12.9311 17.508 12.746 17.5003 12.568 17.456L8.99999 16.565" stroke-linecap="round" stroke-linejoin="round"/>
<path d="M2.94699 20.8L4.56399 20.262C5.00259 20.1155 5.46577 20.057 5.92702 20.0898C6.38826 20.1225 6.83852 20.246 7.25199 20.453L9.39099 21.346C9.87817 21.55 10.4042 21.6445 10.9319 21.6229C11.4596 21.6013 11.9761 21.4641 12.445 21.221L20.75 16.921C21.0784 16.7517 21.332 16.4662 21.4614 16.1201C21.5908 15.7741 21.5867 15.3922 21.45 15.049V15.049C21.3132 14.7076 21.0547 14.4291 20.7244 14.2673C20.3941 14.1055 20.0156 14.0719 19.662 14.173L15.65 15.319" stroke-linecap="round" stroke-linejoin="round"/>
</svg>
