<svg width="20" height="22" viewBox="0 0 26 22" fill="none" xmlns="http://www.w3.org/2000/svg">
<path d="M1 3.4L0.375305 2.61913C0.13809 2.8089 0 3.09622 0 3.4H1ZM13 20.6364L12.3753 21.4172L13 21.917L13.6247 21.4172L13 20.6364ZM1 20.6364H0C0 21.0208 0.220346 21.3711 0.566811 21.5377C0.913277 21.7042 1.32452 21.6574 1.62469 21.4172L1 20.6364ZM25 3.4H26C26 3.09622 25.8619 2.8089 25.6247 2.61913L25 3.4ZM25 20.6364L24.3753 21.4172C24.6755 21.6574 25.0867 21.7042 25.4332 21.5377C25.7797 21.3711 26 21.0208 26 20.6364H25ZM12 3.4V20.6364H14V3.4H12ZM2 20.6364V3.4H0V20.6364H2ZM1 3.4C1.6247 4.18087 1.62452 4.18101 1.62436 4.18114C1.62432 4.18117 1.62416 4.18129 1.62409 4.18136C1.62393 4.18148 1.62381 4.18157 1.62375 4.18163C1.62361 4.18174 1.62365 4.1817 1.62387 4.18153C1.6243 4.18118 1.62545 4.18028 1.62729 4.17883C1.63097 4.17593 1.63744 4.17086 1.6466 4.16377C1.66492 4.14959 1.69398 4.12733 1.73305 4.09816C1.81126 4.03976 1.92922 3.95391 2.08115 3.84973C2.38586 3.64079 2.82261 3.36127 3.34559 3.08235C4.41435 2.51235 5.74152 2 7 2V0C5.25848 0 3.58565 0.687653 2.40441 1.31765C1.80239 1.63873 1.30164 1.95921 0.950097 2.20027C0.773901 2.32109 0.634051 2.42274 0.536476 2.49559C0.48766 2.53204 0.449339 2.56135 0.422251 2.58232C0.408704 2.59281 0.397958 2.60122 0.390105 2.6074C0.386178 2.61049 0.382974 2.61303 0.380504 2.61499C0.379269 2.61597 0.378217 2.61681 0.37735 2.6175C0.376917 2.61784 0.376529 2.61815 0.376188 2.61843C0.376018 2.61856 0.375797 2.61874 0.375712 2.61881C0.375503 2.61897 0.375305 2.61913 1 3.4ZM7 2C8.25848 2 9.58565 2.51235 10.6544 3.08235C11.1774 3.36127 11.6141 3.64079 11.9188 3.84973C12.0708 3.95391 12.1887 4.03976 12.2669 4.09816C12.306 4.12733 12.3351 4.14959 12.3534 4.16377C12.3626 4.17086 12.369 4.17593 12.3727 4.17883C12.3746 4.18028 12.3757 4.18118 12.3761 4.18153C12.3764 4.1817 12.3764 4.18174 12.3763 4.18163C12.3762 4.18157 12.3761 4.18148 12.3759 4.18136C12.3758 4.18129 12.3757 4.18117 12.3756 4.18114C12.3755 4.18101 12.3753 4.18087 13 3.4C13.6247 2.61913 13.6245 2.61897 13.6243 2.61881C13.6242 2.61874 13.624 2.61856 13.6238 2.61843C13.6235 2.61815 13.6231 2.61784 13.6227 2.6175C13.6218 2.61681 13.6207 2.61597 13.6195 2.61499C13.617 2.61303 13.6138 2.61049 13.6099 2.6074C13.602 2.60122 13.5913 2.59281 13.5777 2.58232C13.5507 2.56135 13.5123 2.53204 13.4635 2.49559C13.3659 2.42274 13.2261 2.32109 13.0499 2.20027C12.6984 1.95921 12.1976 1.63873 11.5956 1.31765C10.4144 0.687653 8.74152 0 7 0V2ZM13 20.6364C13.6247 19.8555 13.6245 19.8553 13.6243 19.8552C13.6242 19.8551 13.624 19.8549 13.6238 19.8548C13.6235 19.8545 13.6231 19.8542 13.6227 19.8539C13.6218 19.8532 13.6207 19.8523 13.6195 19.8514C13.617 19.8494 13.6138 19.8469 13.6099 19.8438C13.602 19.8376 13.5913 19.8292 13.5777 19.8187C13.5507 19.7977 13.5123 19.7684 13.4635 19.732C13.3659 19.6591 13.2261 19.5575 13.0499 19.4366C12.6984 19.1956 12.1976 18.8751 11.5956 18.554C10.4143 17.924 8.74152 17.2364 7 17.2364V19.2364C8.25848 19.2364 9.58565 19.7487 10.6544 20.3187C11.1774 20.5976 11.6141 20.8772 11.9188 21.0861C12.0708 21.1903 12.1887 21.2761 12.2669 21.3345C12.306 21.3637 12.3351 21.386 12.3534 21.4001C12.3626 21.4072 12.369 21.4123 12.3727 21.4152C12.3746 21.4166 12.3757 21.4175 12.3761 21.4179C12.3764 21.4181 12.3764 21.4181 12.3763 21.418C12.3762 21.4179 12.3761 21.4178 12.3759 21.4177C12.3758 21.4177 12.3757 21.4175 12.3756 21.4175C12.3755 21.4174 12.3753 21.4172 13 20.6364ZM7 17.2364C5.25848 17.2364 3.58565 17.924 2.40441 18.554C1.80239 18.8751 1.30164 19.1956 0.950097 19.4366C0.773901 19.5575 0.634051 19.6591 0.536477 19.732C0.487661 19.7684 0.449339 19.7977 0.422251 19.8187C0.408704 19.8292 0.397958 19.8376 0.390105 19.8438C0.386179 19.8469 0.382974 19.8494 0.380504 19.8514C0.379269 19.8523 0.378217 19.8532 0.37735 19.8539C0.376917 19.8542 0.376529 19.8545 0.376189 19.8548C0.376018 19.8549 0.375797 19.8551 0.375712 19.8552C0.375503 19.8553 0.375305 19.8555 1 20.6364C1.62469 21.4172 1.62452 21.4174 1.62436 21.4175C1.62432 21.4175 1.62416 21.4177 1.62409 21.4177C1.62393 21.4178 1.62381 21.4179 1.62375 21.418C1.62361 21.4181 1.62365 21.4181 1.62387 21.4179C1.6243 21.4175 1.62545 21.4166 1.62729 21.4152C1.63097 21.4123 1.63744 21.4072 1.6466 21.4001C1.66492 21.386 1.69398 21.3637 1.73305 21.3345C1.81126 21.2761 1.92922 21.1903 2.08115 21.0861C2.38586 20.8772 2.82261 20.5976 3.34559 20.3187C4.41435 19.7487 5.74152 19.2364 7 19.2364V17.2364ZM24 3.4V20.6364H26V3.4H24ZM13 3.4C13.6247 4.18087 13.6245 4.18101 13.6244 4.18114C13.6243 4.18117 13.6242 4.18129 13.6241 4.18136C13.6239 4.18148 13.6238 4.18157 13.6237 4.18163C13.6236 4.18174 13.6236 4.1817 13.6239 4.18153C13.6243 4.18118 13.6254 4.18028 13.6273 4.17883C13.631 4.17593 13.6374 4.17086 13.6466 4.16377C13.6649 4.14959 13.694 4.12733 13.7331 4.09816C13.8113 4.03976 13.9292 3.95391 14.0812 3.84973C14.3859 3.64079 14.8226 3.36127 15.3456 3.08235C16.4144 2.51235 17.7415 2 19 2V0C17.2585 0 15.5857 0.687653 14.4044 1.31765C13.8024 1.63873 13.3016 1.95921 12.9501 2.20027C12.7739 2.32109 12.6341 2.42274 12.5365 2.49559C12.4877 2.53204 12.4493 2.56135 12.4223 2.58232C12.4087 2.59281 12.398 2.60122 12.3901 2.6074C12.3862 2.61049 12.383 2.61303 12.3805 2.61499C12.3793 2.61597 12.3782 2.61681 12.3774 2.6175C12.3769 2.61784 12.3765 2.61815 12.3762 2.61843C12.376 2.61856 12.3758 2.61874 12.3757 2.61881C12.3755 2.61897 12.3753 2.61913 13 3.4ZM19 2C20.2585 2 21.5857 2.51235 22.6544 3.08235C23.1774 3.36127 23.6141 3.64079 23.9188 3.84973C24.0708 3.95391 24.1887 4.03976 24.2669 4.09816C24.306 4.12733 24.3351 4.14959 24.3534 4.16377C24.3626 4.17086 24.369 4.17593 24.3727 4.17883C24.3746 4.18028 24.3757 4.18118 24.3761 4.18153C24.3764 4.1817 24.3764 4.18174 24.3763 4.18163C24.3762 4.18157 24.3761 4.18148 24.3759 4.18136C24.3758 4.18129 24.3757 4.18117 24.3756 4.18114C24.3755 4.18101 24.3753 4.18087 25 3.4C25.6247 2.61913 25.6245 2.61897 25.6243 2.61881C25.6242 2.61874 25.624 2.61856 25.6238 2.61843C25.6235 2.61815 25.6231 2.61784 25.6227 2.6175C25.6218 2.61681 25.6207 2.61597 25.6195 2.61499C25.617 2.61303 25.6138 2.61049 25.6099 2.6074C25.602 2.60122 25.5913 2.59281 25.5778 2.58232C25.5507 2.56135 25.5123 2.53204 25.4635 2.49559C25.366 2.42274 25.2261 2.32109 25.0499 2.20027C24.6984 1.95921 24.1976 1.63873 23.5956 1.31765C22.4144 0.687653 20.7415 0 19 0V2ZM25 20.6364C25.6247 19.8555 25.6245 19.8553 25.6243 19.8552C25.6242 19.8551 25.624 19.8549 25.6238 19.8548C25.6235 19.8545 25.6231 19.8542 25.6227 19.8539C25.6218 19.8532 25.6207 19.8523 25.6195 19.8514C25.617 19.8494 25.6138 19.8469 25.6099 19.8438C25.602 19.8376 25.5913 19.8292 25.5777 19.8187C25.5507 19.7977 25.5123 19.7684 25.4635 19.732C25.3659 19.6591 25.2261 19.5575 25.0499 19.4366C24.6984 19.1956 24.1976 18.8751 23.5956 18.554C22.4144 17.924 20.7415 17.2364 19 17.2364V19.2364C20.2585 19.2364 21.5857 19.7487 22.6544 20.3187C23.1774 20.5976 23.6141 20.8772 23.9188 21.0861C24.0708 21.1903 24.1887 21.2761 24.2669 21.3345C24.306 21.3637 24.3351 21.386 24.3534 21.4001C24.3626 21.4072 24.369 21.4123 24.3727 21.4152C24.3746 21.4166 24.3757 21.4175 24.3761 21.4179C24.3764 21.4181 24.3764 21.4181 24.3763 21.418C24.3762 21.4179 24.3761 21.4178 24.3759 21.4177C24.3758 21.4177 24.3757 21.4175 24.3756 21.4175C24.3755 21.4174 24.3753 21.4172 25 20.6364ZM19 17.2364C17.2585 17.2364 15.5857 17.924 14.4044 18.554C13.8024 18.8751 13.3016 19.1956 12.9501 19.4366C12.7739 19.5575 12.6341 19.6591 12.5365 19.732C12.4877 19.7684 12.4493 19.7977 12.4223 19.8187C12.4087 19.8292 12.398 19.8376 12.3901 19.8438C12.3862 19.8469 12.383 19.8494 12.3805 19.8514C12.3793 19.8523 12.3782 19.8532 12.3774 19.8539C12.3769 19.8542 12.3765 19.8545 12.3762 19.8548C12.376 19.8549 12.3758 19.8551 12.3757 19.8552C12.3755 19.8553 12.3753 19.8555 13 20.6364C13.6247 21.4172 13.6245 21.4174 13.6244 21.4175C13.6243 21.4175 13.6242 21.4177 13.6241 21.4177C13.6239 21.4178 13.6238 21.4179 13.6237 21.418C13.6236 21.4181 13.6236 21.4181 13.6239 21.4179C13.6243 21.4175 13.6254 21.4166 13.6273 21.4152C13.631 21.4123 13.6374 21.4072 13.6466 21.4001C13.6649 21.386 13.694 21.3637 13.7331 21.3345C13.8113 21.2761 13.9292 21.1903 14.0812 21.0861C14.3859 20.8772 14.8226 20.5976 15.3456 20.3187C16.4144 19.7487 17.7415 19.2364 19 19.2364V17.2364Z" fill="#BAB8C0"/>
</svg>
