<svg width="24" height="24" viewBox="0 0 24 24" fill="none" xmlns="http://www.w3.org/2000/svg">
<path d="M11.5 3H12.5C17.1944 3 21 6.80558 21 11.5V16.8235C21 18.5778 19.5778 20 17.8235 20H16.2353H12H7.76468H6.17647C4.42215 20 3 18.5778 3 16.8235V11.5C3 6.80558 6.80558 3 11.5 3Z" stroke-linecap="round" stroke-linejoin="round"/>
<path d="M14.2689 6.39655V7.55579L12.4538 9.3489V5.5H11.5462V9.3489L9.73109 7.55579V6.39655H8.82353V13.569C8.8248 14.3228 9.10058 15.051 9.60047 15.6206C10.1004 16.1901 10.791 16.563 11.5462 16.671V18.5H12.4538V16.671C13.209 16.563 13.8996 16.1901 14.3995 15.6206C14.8994 15.051 15.1752 14.3228 15.1765 13.569V6.39655H14.2689ZM11.5462 15.7651C11.0341 15.6611 10.574 15.3859 10.2433 14.9859C9.91268 14.5858 9.73177 14.0854 9.73109 13.569V12.4097L11.5462 14.2028V15.7651ZM11.5462 12.9351L9.73109 11.142V8.82352L11.5462 10.6166V12.9351ZM12.4538 10.6166L14.2689 8.82352V11.142L12.4538 12.9351V10.6166ZM12.4538 15.7651V14.2028L14.2689 12.4097V13.569C14.2682 14.0854 14.0873 14.5858 13.7567 14.9859C13.426 15.3859 12.9659 15.6611 12.4538 15.7651Z" fill="#BAB8C0"/>
</svg>
