<svg width="24" height="24" viewBox="0 0 24 24" fill="none" xmlns="http://www.w3.org/2000/svg">
<path d="M4.793 6.793L6.207 8.207" stroke-linecap="round" stroke-linejoin="round"/>
<path d="M12 4.5V6.5" stroke-linecap="round" stroke-linejoin="round"/>
<path d="M17.793 8.207L19.207 6.793" stroke-linecap="round" stroke-linejoin="round"/>
<path d="M2.25 19.5H21.75" stroke-linecap="round" stroke-linejoin="round"/>
<path d="M9 10.5538L10.4961 9.77547C11.319 9.34737 11.9965 8.9984 12.0016 9.00001C12.0068 9.00159 12.6835 9.35242 13.5055 9.7796L15 10.5563V11.4491C15 12.1566 14.9959 12.34 14.9803 12.3331C14.9694 12.3283 14.2937 11.9779 13.4787 11.5544L11.9969 10.7844L11.3793 11.1057C11.0396 11.2824 10.7565 11.4325 10.7501 11.4393C10.7438 11.4461 11.6974 11.9494 12.8692 12.5577L14.9998 13.6639L14.9999 14.5523L15 15.4407L13.4988 16.2203L11.9976 17L10.5108 16.2288C9.69303 15.8047 9.01855 15.4526 9.01197 15.4464C9.00538 15.4402 9.00183 15.0358 9.00407 14.5479L9.00816 13.6607L9.47393 13.9025L10.9687 14.6787L11.9977 15.2132L12.6289 14.8861C12.9761 14.7061 13.2555 14.5539 13.2498 14.5478C13.2442 14.5417 12.2875 14.0423 11.1239 13.438L9.00816 12.3392L9.00407 11.4465L9 10.5538Z" fill="#BAB8C0"/>
</svg>
