<svg width="20" height="18" viewBox="0 0 20 18" fill="none" xmlns="http://www.w3.org/2000/svg">
<path fill-rule="evenodd" clip-rule="evenodd" d="M4.0618 7.50001C4.0618 7.50001 4.49834 7.44501 5.13176 7.28701C6.80198 6.87051 9.83961 5.74001 9.83961 3.02101C9.83961 2.62428 9.756 2.23144 9.59356 1.86492C9.43112 1.49839 9.19303 1.16536 8.89287 0.884836C8.59272 0.604311 8.23639 0.381785 7.84422 0.229966C7.45205 0.0781464 7.03173 5.87897e-06 6.60724 5.87897e-06H3.44229C3.01434 -0.00513993 2.58956 0.0691928 2.1926 0.218691C1.79564 0.368189 1.43439 0.589876 1.12982 0.87089C0.825255 1.1519 0.58343 1.48665 0.418378 1.8557C0.253326 2.22475 0.168335 2.62076 0.168335 3.02076C0.168335 3.42075 0.253326 3.81676 0.418378 4.18581C0.58343 4.55486 0.825255 4.88961 1.12982 5.17062C1.43439 5.45164 1.79564 5.67332 2.1926 5.82282C2.58956 5.97232 3.01434 6.04665 3.44229 6.04151H4.0618V7.50001ZM5.13176 5.04151H3.44229C3.15549 5.04572 2.87066 4.99657 2.60438 4.89691C2.33811 4.79725 2.09571 4.64908 1.8913 4.46101C1.68689 4.27295 1.52455 4.04876 1.41375 3.8015C1.30294 3.55423 1.24587 3.28883 1.24587 3.02076C1.24587 2.75268 1.30294 2.48728 1.41375 2.24002C1.52455 1.99275 1.68689 1.76856 1.8913 1.5805C2.09571 1.39244 2.33811 1.24426 2.60438 1.1446C2.87066 1.04494 3.15549 0.995789 3.44229 1.00001H6.60724C6.89122 1.00001 7.17241 1.05228 7.43476 1.15385C7.69711 1.25541 7.9355 1.40428 8.13629 1.59194C8.33709 1.77961 8.49637 2.0024 8.60504 2.2476C8.71371 2.4928 8.76965 2.7556 8.76965 3.02101C8.76965 4.31251 7.8024 5.17251 6.4858 5.76601C6.04882 5.96005 5.59605 6.12139 5.13176 6.24851V5.04151V5.04151ZM4.75727 13C5.93959 13 6.89721 12.105 6.89721 11C6.89721 9.89501 5.93959 9.00001 4.75727 9.00001C3.57496 9.00001 2.61734 9.89501 2.61734 11C2.61734 12.105 3.57496 13 4.75727 13ZM5.82724 11C5.82724 11.2652 5.71451 11.5196 5.51385 11.7071C5.3132 11.8946 5.04105 12 4.75727 12C4.4735 12 4.20135 11.8946 4.00069 11.7071C3.80004 11.5196 3.68731 11.2652 3.68731 11C3.68731 10.7348 3.80004 10.4804 4.00069 10.2929C4.20135 10.1054 4.4735 10 4.75727 10C5.04105 10 5.3132 10.1054 5.51385 10.2929C5.71451 10.4804 5.82724 10.7348 5.82724 11V11ZM0.209919 16.1335C0.209919 14.7145 3.23953 14 4.75727 14C6.27502 14 9.30463 14.715 9.30463 16.1335V18H0.209919V16.1335ZM1.27988 17V16.1335C1.27988 16.1285 1.27988 16.1185 1.29379 16.0935C1.31091 16.0625 1.34997 16.008 1.43449 15.935C1.6105 15.7825 1.90528 15.616 2.31347 15.4625C3.132 15.155 4.13241 15 4.75727 15C5.3816 15 6.38309 15.155 7.20108 15.4625C7.60873 15.616 7.90404 15.7825 8.08005 15.935C8.16458 16.008 8.20363 16.0625 8.22075 16.093C8.23466 16.118 8.23466 16.129 8.23466 16.133V17H1.27988ZM17.0619 11C17.0619 12.105 16.1043 13 14.922 13C13.7396 13 12.782 12.105 12.782 11C12.782 9.89501 13.7396 9.00001 14.922 9.00001C16.1043 9.00001 17.0619 9.89501 17.0619 11ZM14.922 12C15.2057 12 15.4779 11.8946 15.6785 11.7071C15.8792 11.5196 15.9919 11.2652 15.9919 11C15.9919 10.7348 15.8792 10.4804 15.6785 10.2929C15.4779 10.1054 15.2057 10 14.922 10C14.6382 10 14.366 10.1054 14.1654 10.2929C13.9647 10.4804 13.852 10.7348 13.852 11C13.852 11.2652 13.9647 11.5196 14.1654 11.7071C14.366 11.8946 14.6382 12 14.922 12ZM10.3746 16.1335C10.3746 14.7145 13.4042 14 14.922 14C16.4397 14 19.4693 14.715 19.4693 16.1335V18H10.3746V16.1335ZM11.4446 17V16.1335C11.4446 16.1285 11.4446 16.1185 11.4585 16.0935C11.4756 16.0625 11.5146 16.008 11.5986 15.935C11.7752 15.7825 12.0705 15.616 12.4781 15.4625C13.2967 15.155 14.2971 15 14.922 15C15.5463 15 16.5478 15.155 17.3658 15.4625C17.7734 15.616 18.0687 15.7825 18.2453 15.935C18.3293 16.008 18.3683 16.0625 18.3854 16.093C18.3993 16.118 18.3993 16.129 18.3993 16.133V17H11.4446ZM14.9754 7.75301C15.6014 7.93701 16.0454 8.00001 16.0454 8.00001V6.54151H16.2369C16.6649 6.54665 17.0897 6.47232 17.4866 6.32282C17.8836 6.17332 18.2448 5.95164 18.5494 5.67062C18.854 5.38961 19.0958 5.05486 19.2608 4.68581C19.4259 4.31676 19.5109 3.92075 19.5109 3.52076C19.5109 3.12076 19.4259 2.72475 19.2608 2.3557C19.0958 1.98665 18.854 1.6519 18.5494 1.37089C18.2448 1.08988 17.8836 0.868189 17.4866 0.718691C17.0897 0.569193 16.6649 0.49486 16.2369 0.500006H14.1419C13.2847 0.500006 12.4625 0.818289 11.8563 1.38484C11.2501 1.95138 10.9096 2.71979 10.9096 3.52101C10.9096 6.16901 13.4705 7.31101 14.9754 7.75301ZM16.2369 5.54151H14.9754V6.69801C14.6357 6.58462 14.3056 6.44756 13.9879 6.28801C12.873 5.72251 11.9795 4.87401 11.9795 3.52051C11.9797 2.98459 12.2076 2.47067 12.6131 2.09177C13.0186 1.71286 13.5685 1.50001 14.1419 1.50001H16.2369C16.5237 1.49579 16.8086 1.54494 17.0748 1.6446C17.3411 1.74426 17.5835 1.89244 17.7879 2.0805C17.9923 2.26856 18.1547 2.49275 18.2655 2.74002C18.3763 2.98728 18.4334 3.25268 18.4334 3.52076C18.4334 3.78883 18.3763 4.05423 18.2655 4.3015C18.1547 4.54876 17.9923 4.77295 17.7879 4.96101C17.5835 5.14908 17.3411 5.29725 17.0748 5.39691C16.8086 5.49657 16.5237 5.54572 16.2369 5.54151Z" fill="#BAB8C0"/>
</svg>
