<svg width="19" height="19" viewBox="0 0 19 19" fill="none" xmlns="http://www.w3.org/2000/svg">
<path d="M2 1H17C17.5523 1 18 1.44772 18 2V17C18 17.5523 17.5523 18 17 18H15H13.5H9.49997H5.49997H4H2C1.44772 18 1 17.5523 1 17V2C1 1.44772 1.44772 1 2 1Z" stroke-linecap="round" stroke-linejoin="round"/>
<path fill-rule="evenodd" clip-rule="evenodd" d="M4.73587 7.5C4.01274 7.5 3.43017 7.15245 3.13686 6.85836C3.09862 6.82067 3.06689 6.77346 3.04362 6.71966C3.02034 6.66586 3.00602 6.60659 3.00153 6.54552C2.99704 6.48444 3.00247 6.42285 3.0175 6.36454C3.03253 6.30622 3.05684 6.25242 3.08892 6.20644C3.15587 6.11278 3.24826 6.05451 3.34766 6.04327C3.44706 6.03202 3.54616 6.06863 3.62517 6.14578C3.66823 6.18794 4.64893 7.11851 5.95706 6.11287C7.7015 4.7679 9.60845 6.04809 9.68889 6.10156C9.70351 6.11082 11.2651 7.14319 12.6757 6.10876C14.5192 4.75145 15.8176 6.09745 15.8712 6.15709C15.9085 6.19604 15.9391 6.24425 15.9612 6.29875C15.9832 6.35324 15.9961 6.41286 15.9993 6.47393C16.0024 6.53501 15.9956 6.59625 15.9793 6.65387C15.963 6.7115 15.9376 6.7643 15.9045 6.80901C15.8355 6.90152 15.7411 6.95719 15.6407 6.96464C15.5403 6.97209 15.4414 6.93077 15.3642 6.84911C15.3309 6.81312 14.4266 5.90414 13.073 6.89847C11.2749 8.21876 9.39233 6.96016 9.31189 6.90669C9.29564 6.89435 7.72182 5.84655 6.36656 6.89332C5.78887 7.33959 5.22906 7.5 4.73587 7.5V7.5Z" fill="#BAB8C0"/>
<path fill-rule="evenodd" clip-rule="evenodd" d="M4.74353 10.5C3.81092 10.5 3.19189 9.92223 3.1537 9.88344C3.07226 9.80682 3.01838 9.69269 3.0039 9.56615C2.98943 9.43961 3.01555 9.31103 3.07653 9.20869C3.1375 9.10636 3.22833 9.03865 3.32904 9.02046C3.42974 9.00227 3.53207 9.0351 3.61351 9.11172C3.65982 9.15459 4.65255 10.0498 5.97185 9.08007C7.70385 7.80816 9.5967 9.01678 9.67631 9.06884C9.69093 9.07803 11.267 10.0733 12.6894 9.07599C14.5205 7.79183 15.8033 9.0668 15.8577 9.12193C15.9367 9.20284 15.987 9.31964 15.9978 9.44695C16.0086 9.57425 15.979 9.70176 15.9154 9.80178C15.884 9.85107 15.8451 9.89209 15.8011 9.92247C15.757 9.95286 15.7086 9.97202 15.6586 9.97884C15.6087 9.98567 15.5581 9.98004 15.5099 9.96227C15.4617 9.94449 15.4167 9.91493 15.3776 9.87527C15.3427 9.84057 14.4271 8.96472 13.0599 9.92121C11.2767 11.1717 9.40579 9.98041 9.32536 9.92835C9.31074 9.91917 7.72254 8.9096 6.35611 9.91713C5.76226 10.353 5.21309 10.5 4.74353 10.5V10.5Z" fill="#BAB8C0"/>
<path fill-rule="evenodd" clip-rule="evenodd" d="M11.2758 13.4995C10.5933 13.4943 9.92109 13.2906 9.31201 12.9043C9.29576 12.8941 7.72198 11.8474 6.36839 12.8931C4.93598 13.9959 3.62788 13.3538 3.13714 12.8584C3.09879 12.8206 3.06698 12.7733 3.04366 12.7196C3.02035 12.6658 3.00601 12.6067 3.00152 12.5457C2.99704 12.4848 3.0025 12.4233 3.01757 12.3651C3.03265 12.3069 3.05702 12.2531 3.0892 12.2071C3.15551 12.113 3.24804 12.0543 3.34778 12.0432C3.44751 12.032 3.54688 12.0691 3.62544 12.147C3.6685 12.1888 4.64917 13.1193 5.95727 12.1134C7.70167 10.768 9.60857 12.0471 9.68901 12.1022C9.70526 12.1113 11.266 13.1438 12.6757 12.1093C14.5192 10.7527 15.8176 12.1001 15.8712 12.1562C15.9086 12.1955 15.9392 12.244 15.9612 12.2986C15.9832 12.3532 15.9962 12.4128 15.9993 12.4739C16.0024 12.535 15.9956 12.5962 15.9793 12.6539C15.963 12.7116 15.9376 12.7645 15.9045 12.8095C15.8355 12.9013 15.7412 12.9567 15.6408 12.9643C15.5404 12.9719 15.4415 12.9311 15.3642 12.8503C15.3309 12.8126 14.4266 11.9065 13.073 12.8982C12.5281 13.2981 11.9071 13.5059 11.2758 13.4995V13.4995Z" fill="#BAB8C0"/>
</svg>
