<svg width="24" height="24" viewBox="0 0 24 24" fill="none" xmlns="http://www.w3.org/2000/svg">
<path d="M4 3H20C20.5523 3 21 3.44772 21 4V19C21 19.5523 20.5523 20 20 20H17.8235H16.2353H12H7.76468H6.17647H4C3.44772 20 3 19.5523 3 19V4C3 3.44772 3.44772 3 4 3Z" stroke-linecap="round" stroke-linejoin="round"/>
<path fill-rule="evenodd" clip-rule="evenodd" d="M6.86939 10C6.09064 10 5.46326 9.65245 5.14738 9.35836C5.10621 9.32067 5.07204 9.27346 5.04697 9.21966C5.02191 9.16586 5.00648 9.10659 5.00165 9.04552C4.99681 8.98444 5.00266 8.92285 5.01885 8.86454C5.03504 8.80622 5.06121 8.75242 5.09576 8.70644C5.16786 8.61278 5.26736 8.55451 5.37441 8.54327C5.48145 8.53202 5.58817 8.56863 5.67326 8.64578C5.71964 8.68794 6.77577 9.61851 8.18453 8.61287C10.0632 7.2679 12.1168 8.54809 12.2034 8.60156C12.2192 8.61082 13.9009 9.64319 15.4199 8.60876C17.4053 7.25145 18.8036 8.59745 18.8613 8.65709C18.9015 8.69604 18.9345 8.74425 18.9582 8.79875C18.9819 8.85324 18.9958 8.91286 18.9992 8.97393C19.0026 9.03501 18.9952 9.09625 18.9777 9.15387C18.9602 9.2115 18.9328 9.2643 18.8972 9.30901C18.8228 9.40152 18.7212 9.45719 18.613 9.46464C18.5049 9.47209 18.3984 9.43077 18.3153 9.34911C18.2795 9.31312 17.3056 8.40414 15.8478 9.39847C13.9114 10.7188 11.884 9.46016 11.7974 9.40669C11.7799 9.39435 10.085 8.34655 8.62553 9.39332C8.0034 9.83959 7.40052 10 6.86939 10Z" fill="#BAB8C0"/>
<path fill-rule="evenodd" clip-rule="evenodd" d="M6.87765 13C5.8733 13 5.20665 12.4222 5.16553 12.3834C5.07782 12.3068 5.01979 12.1927 5.0042 12.0661C4.98862 11.9396 5.01675 11.811 5.08241 11.7087C5.14808 11.6064 5.2459 11.5386 5.35435 11.5205C5.4628 11.5023 5.573 11.5351 5.66071 11.6117C5.71057 11.6546 6.77967 12.5498 8.20046 11.5801C10.0657 10.3082 12.1041 11.5168 12.1899 11.5688C12.2056 11.578 13.9029 12.5733 15.4348 11.576C17.4067 10.2918 18.7882 11.5668 18.8468 11.6219C18.9318 11.7028 18.986 11.8196 18.9977 11.9469C19.0093 12.0742 18.9774 12.2018 18.9089 12.3018C18.8751 12.3511 18.8332 12.3921 18.7858 12.4225C18.7383 12.4529 18.6862 12.472 18.6324 12.4788C18.5786 12.4857 18.5241 12.48 18.4722 12.4623C18.4203 12.4445 18.3719 12.4149 18.3297 12.3753C18.2921 12.3406 17.3061 11.4647 15.8337 12.4212C13.9134 13.6717 11.8985 12.4804 11.8119 12.4284C11.7962 12.4192 10.0858 11.4096 8.61427 12.4171C7.97474 12.853 7.38333 13 6.87765 13Z" fill="#BAB8C0"/>
<path fill-rule="evenodd" clip-rule="evenodd" d="M13.9124 15.9995C13.1774 15.9943 12.4535 15.7906 11.7976 15.4043C11.7801 15.3941 10.0852 14.3474 8.62749 15.3931C7.0849 16.4959 5.67618 15.8538 5.14769 15.3584C5.10639 15.3206 5.07213 15.2733 5.04702 15.2196C5.02191 15.1658 5.00647 15.1067 5.00164 15.0457C4.99681 14.9848 5.00269 14.9233 5.01892 14.8651C5.03516 14.8069 5.06141 14.7531 5.09607 14.7071C5.16748 14.613 5.26712 14.5543 5.37453 14.5432C5.48194 14.532 5.58894 14.5691 5.67355 14.647C5.71993 14.6888 6.77603 15.6193 8.18475 14.6134C10.0633 13.268 12.1169 14.5471 12.2035 14.6022C12.221 14.6113 13.9019 15.6438 15.42 14.6093C17.4053 13.2527 18.8035 14.6001 18.8613 14.6562C18.9015 14.6955 18.9345 14.744 18.9582 14.7986C18.9819 14.8532 18.9959 14.9128 18.9992 14.9739C19.0026 15.035 18.9952 15.0962 18.9777 15.1539C18.9602 15.2116 18.9328 15.2645 18.8972 15.3095C18.8229 15.4013 18.7213 15.4567 18.6132 15.4643C18.505 15.4719 18.3985 15.4311 18.3153 15.3503C18.2794 15.3126 17.3056 14.4065 15.8478 15.3982C15.261 15.7981 14.5923 16.0059 13.9124 15.9995Z" fill="#BAB8C0"/>
</svg>
