<svg width="24" height="24" viewBox="0 0 24 24" fill="none" xmlns="http://www.w3.org/2000/svg">
<path d="M4.5 3C3.6795 3 3 3.6795 3 4.5C3 5.3205 3.6795 6 4.5 6C5.3205 6 6 5.3205 6 4.5C6 3.6795 5.3205 3 4.5 3ZM7.5 3.75C7.0875 3.75 6.75 4.0875 6.75 4.5C6.75 4.9125 7.0875 5.25 7.5 5.25C7.9125 5.25 8.25 4.9125 8.25 4.5C8.25 4.0875 7.9125 3.75 7.5 3.75ZM9.75 3.75C9.3375 3.75 9 4.0875 9 4.5C9 4.9125 9.3375 5.25 9.75 5.25C10.1625 5.25 10.5 4.9125 10.5 4.5C10.5 4.0875 10.1625 3.75 9.75 3.75ZM12 3.75C11.5875 3.75 11.25 4.0875 11.25 4.5C11.25 4.9125 11.5875 5.25 12 5.25C12.4125 5.25 12.75 4.9125 12.75 4.5C12.75 4.0875 12.4125 3.75 12 3.75ZM14.25 3.75C13.8375 3.75 13.5 4.0875 13.5 4.5C13.5 4.9125 13.8375 5.25 14.25 5.25C14.6625 5.25 15 4.9125 15 4.5C15 4.0875 14.6625 3.75 14.25 3.75ZM16.5 3.75C16.0875 3.75 15.75 4.0875 15.75 4.5C15.75 4.9125 16.0875 5.25 16.5 5.25C16.9125 5.25 17.25 4.9125 17.25 4.5C17.25 4.0875 16.9125 3.75 16.5 3.75ZM18.75 3.75C18.3375 3.75 18 4.0875 18 4.5C18 4.9125 18.3375 5.25 18.75 5.25C19.1625 5.25 19.5 4.9125 19.5 4.5C19.5 4.0875 19.1625 3.75 18.75 3.75ZM20.25 5.25C19.8375 5.25 19.5 5.5875 19.5 6C19.5 6.4125 19.8375 6.75 20.25 6.75C20.6625 6.75 21 6.4125 21 6C21 5.5875 20.6625 5.25 20.25 5.25ZM12 7.5C10.761 7.5 9.75 8.511 9.75 9.75C9.75 10.6875 10.9597 13.119 11.3325 13.8428L12 15.1403L12.6675 13.8428C13.041 13.119 14.25 10.6875 14.25 9.75C14.25 8.511 13.239 7.5 12 7.5ZM20.25 7.5C19.8375 7.5 19.5 7.8375 19.5 8.25C19.5 8.6625 19.8375 9 20.25 9C20.6625 9 21 8.6625 21 8.25C21 7.8375 20.6625 7.5 20.25 7.5ZM12 9C12.4125 9 12.75 9.3375 12.75 9.75C12.75 10.1625 12.4125 10.5 12 10.5C11.5875 10.5 11.25 10.1625 11.25 9.75C11.25 9.3375 11.5875 9 12 9ZM20.25 9.75C19.8375 9.75 19.5 10.0875 19.5 10.5C19.5 10.9125 19.8375 11.25 20.25 11.25C20.6625 11.25 21 10.9125 21 10.5C21 10.0875 20.6625 9.75 20.25 9.75ZM20.25 12C19.8375 12 19.5 12.3375 19.5 12.75C19.5 13.1625 19.8375 13.5 20.25 13.5C20.6625 13.5 21 13.1625 21 12.75C21 12.3375 20.6625 12 20.25 12ZM5.25 13.5C4.8375 13.5 4.5 13.8375 4.5 14.25C4.5 14.6625 4.8375 15 5.25 15C5.6625 15 6 14.6625 6 14.25C6 13.8375 5.6625 13.5 5.25 13.5ZM7.5 13.5C7.0875 13.5 6.75 13.8375 6.75 14.25C6.75 14.6625 7.0875 15 7.5 15C7.9125 15 8.25 14.6625 8.25 14.25C8.25 13.8375 7.9125 13.5 7.5 13.5ZM9.75 13.5C9.3375 13.5 9 13.8375 9 14.25C9 14.6625 9.3375 15 9.75 15C10.1625 15 10.5 14.6625 10.5 14.25C10.5 13.8375 10.1625 13.5 9.75 13.5ZM14.25 13.5C13.8375 13.5 13.5 13.8375 13.5 14.25C13.5 14.6625 13.8375 15 14.25 15C14.6625 15 15 14.6625 15 14.25C15 13.8375 14.6625 13.5 14.25 13.5ZM16.5 13.5C16.0875 13.5 15.75 13.8375 15.75 14.25C15.75 14.6625 16.0875 15 16.5 15C16.9125 15 17.25 14.6625 17.25 14.25C17.25 13.8375 16.9125 13.5 16.5 13.5ZM18.75 13.5C18.3375 13.5 18 13.8375 18 14.25C18 14.6625 18.3375 15 18.75 15C19.1625 15 19.5 14.6625 19.5 14.25C19.5 13.8375 19.1625 13.5 18.75 13.5ZM3.75 15C3.3375 15 3 15.3375 3 15.75C3 16.1625 3.3375 16.5 3.75 16.5C4.1625 16.5 4.5 16.1625 4.5 15.75C4.5 15.3375 4.1625 15 3.75 15ZM3.75 17.25C3.3375 17.25 3 17.5875 3 18C3 18.4125 3.3375 18.75 3.75 18.75C4.1625 18.75 4.5 18.4125 4.5 18C4.5 17.5875 4.1625 17.25 3.75 17.25ZM19.5 18C18.6795 18 18 18.6795 18 19.5C18 20.3205 18.6795 21 19.5 21C20.3205 21 21 20.3205 21 19.5C21 18.6795 20.3205 18 19.5 18ZM5.25 18.75C4.8375 18.75 4.5 19.0875 4.5 19.5C4.5 19.9125 4.8375 20.25 5.25 20.25C5.6625 20.25 6 19.9125 6 19.5C6 19.0875 5.6625 18.75 5.25 18.75ZM7.5 18.75C7.0875 18.75 6.75 19.0875 6.75 19.5C6.75 19.9125 7.0875 20.25 7.5 20.25C7.9125 20.25 8.25 19.9125 8.25 19.5C8.25 19.0875 7.9125 18.75 7.5 18.75ZM9.75 18.75C9.3375 18.75 9 19.0875 9 19.5C9 19.9125 9.3375 20.25 9.75 20.25C10.1625 20.25 10.5 19.9125 10.5 19.5C10.5 19.0875 10.1625 18.75 9.75 18.75ZM12 18.75C11.5875 18.75 11.25 19.0875 11.25 19.5C11.25 19.9125 11.5875 20.25 12 20.25C12.4125 20.25 12.75 19.9125 12.75 19.5C12.75 19.0875 12.4125 18.75 12 18.75ZM14.25 18.75C13.8375 18.75 13.5 19.0875 13.5 19.5C13.5 19.9125 13.8375 20.25 14.25 20.25C14.6625 20.25 15 19.9125 15 19.5C15 19.0875 14.6625 18.75 14.25 18.75ZM16.5 18.75C16.0875 18.75 15.75 19.0875 15.75 19.5C15.75 19.9125 16.0875 20.25 16.5 20.25C16.9125 20.25 17.25 19.9125 17.25 19.5C17.25 19.0875 16.9125 18.75 16.5 18.75Z"/>
</svg>
