<svg width="24" height="24" viewBox="0 0 24 24" fill="none" xmlns="http://www.w3.org/2000/svg">
<path d="M19.741 8.513C18.9199 6.68 17.4753 5.19756 15.6642 4.32926C13.853 3.46095 11.7927 3.26303 9.84936 3.77069C7.90605 4.27835 6.20573 5.45869 5.05068 7.10187C3.89563 8.74505 3.3607 10.7446 3.54099 12.745" stroke-miterlimit="10" stroke-linecap="round"/>
<path d="M4.259 15.487C5.08013 17.3202 6.52475 18.8027 8.33602 19.671C10.1473 20.5394 12.2078 20.7372 14.1512 20.2294C16.0946 19.7216 17.795 18.5411 18.9499 16.8977C20.1049 15.2543 20.6396 13.2545 20.459 11.254" stroke-miterlimit="10" stroke-linecap="round"/>
<path d="M1.612 11.056L3.501 12.944L5.389 11.056" stroke-linecap="round" stroke-linejoin="round"/>
<path d="M22.388 12.944L20.499 11.056L18.611 12.944" stroke-linecap="round" stroke-linejoin="round"/>
</svg>
