<svg width="24" height="24" viewBox="0 0 24 24" fill="none" xmlns="http://www.w3.org/2000/svg">
<path d="M6 11.5H4.5C4.23478 11.5 3.98043 11.3946 3.79289 11.2071C3.60536 11.0196 3.5 10.7652 3.5 10.5V9.5C3.5 9.23478 3.60536 8.98043 3.79289 8.79289C3.98043 8.60536 4.23478 8.5 4.5 8.5" stroke-miterlimit="10" stroke-linecap="round"/>
<path d="M8.239 20.5H5.5C5.23478 20.5 4.98043 20.3946 4.79289 20.2071C4.60536 20.0196 4.5 19.7652 4.5 19.5V18.5C4.5 18.2348 4.60536 17.9804 4.79289 17.7929C4.98043 17.6054 5.23478 17.5 5.5 17.5" stroke-miterlimit="10" stroke-linecap="round"/>
<path d="M5.5 14.5C5.23478 14.5 4.98043 14.3946 4.79289 14.2071C4.60536 14.0196 4.5 13.7652 4.5 13.5V12.5C4.5 12.2348 4.60536 11.9804 4.79289 11.7929C4.98043 11.6054 5.23478 11.5 5.5 11.5" stroke-miterlimit="10" stroke-linecap="round"/>
<path d="M12.239 5.5H5.5C5.23478 5.5 4.98043 5.39464 4.79289 5.20711C4.60536 5.01957 4.5 4.76522 4.5 4.5V3.5C4.5 3.23478 4.60536 2.98043 4.79289 2.79289C4.98043 2.60536 5.23478 2.5 5.5 2.5H16.5C16.7652 2.5 17.0196 2.60536 17.2071 2.79289C17.3946 2.98043 17.5 3.23478 17.5 3.5V4.5C17.5 4.76522 17.3946 5.01957 17.2071 5.20711C17.0196 5.39464 16.7652 5.5 16.5 5.5H14.569" stroke-miterlimit="10" stroke-linecap="round"/>
<path d="M14 7.91936C15.2027 7.91918 16.3784 8.27565 17.3785 8.94368C18.3786 9.61172 19.1581 10.5613 19.6184 11.6724C20.0788 12.7835 20.1994 14.0061 19.9648 15.1857C19.7303 16.3653 19.1513 17.4489 18.3009 18.2993C17.4506 19.1498 16.3671 19.729 15.1875 19.9637C14.008 20.1984 12.7853 20.0781 11.6742 19.6179C10.563 19.1577 9.61331 18.3783 8.94512 17.3783C8.27693 16.3783 7.92028 15.2027 7.92028 14C7.92198 12.388 8.56304 10.8425 9.70282 9.70254C10.8426 8.5626 12.388 7.92131 14 7.91936V7.91936ZM14 7C12.6155 7 11.2622 7.41054 10.111 8.17971C8.95987 8.94888 8.06266 10.0421 7.53285 11.3212C7.00303 12.6003 6.86441 14.0078 7.13451 15.3656C7.4046 16.7235 8.07129 17.9708 9.05025 18.9497C10.0292 19.9287 11.2765 20.5954 12.6344 20.8655C13.9922 21.1356 15.3997 20.997 16.6788 20.4672C17.9579 19.9373 19.0511 19.0401 19.8203 17.889C20.5895 16.7378 21 15.3845 21 14C20.9981 12.1441 20.2599 10.3647 18.9476 9.0524C17.6353 7.74007 15.8559 7.00195 14 7V7Z"/>
<path d="M7.75 8.5H4.5C4.23478 8.5 3.98043 8.39464 3.79289 8.20711C3.60536 8.01957 3.5 7.76522 3.5 7.5V6.5C3.5 6.23478 3.60536 5.98043 3.79289 5.79289C3.98043 5.60536 4.23478 5.5 4.5 5.5H5.5" stroke-miterlimit="10" stroke-linecap="round"/>
<path d="M6.239 17.5H3.5C3.23478 17.5 2.98043 17.3946 2.79289 17.2071C2.60536 17.0196 2.5 16.7652 2.5 16.5V15.5C2.5 15.2348 2.60536 14.9804 2.79289 14.7929C2.98043 14.6054 3.23478 14.5 3.5 14.5H5.5" stroke-miterlimit="10" stroke-linecap="round"/>
<path d="M11 11.5538L12.4961 10.7755C13.319 10.3474 13.9965 9.9984 14.0016 10C14.0068 10.0016 14.6835 10.3524 15.5055 10.7796L17 11.5563V12.4491C17 13.1566 16.9959 13.34 16.9803 13.3331C16.9694 13.3283 16.2937 12.9779 15.4787 12.5544L13.9969 11.7844L13.3793 12.1057C13.0396 12.2824 12.7565 12.4325 12.7501 12.4393C12.7438 12.4461 13.6974 12.9494 14.8692 13.5577L16.9998 14.6639L16.9999 15.5523L17 16.4407L15.4988 17.2203L13.9976 18L12.5108 17.2288C11.693 16.8047 11.0186 16.4526 11.012 16.4464C11.0054 16.4402 11.0018 16.0358 11.0041 15.5479L11.0082 14.6607L11.4739 14.9025L12.9687 15.6787L13.9977 16.2132L14.6289 15.8861C14.9761 15.7061 15.2555 15.5539 15.2498 15.5478C15.2442 15.5417 14.2875 15.0423 13.1239 14.438L11.0082 13.3392L11.0041 12.4465L11 11.5538Z"/>
</svg>
