<svg width="24" height="24" viewBox="0 0 24 24" fill="none" xmlns="http://www.w3.org/2000/svg">
<path d="M19.605 3.5H4.395C4.15159 3.50629 3.92063 3.60891 3.75283 3.78534C3.58502 3.96177 3.49409 4.19758 3.5 4.441V20.5H6.5L7.5 18.5H16.5L17.5 20.5H20.5V4.441C20.5059 4.19758 20.415 3.96177 20.2472 3.78534C20.0794 3.60891 19.8484 3.50629 19.605 3.5V3.5Z" stroke-linecap="round" stroke-linejoin="round"/>
<path d="M12 6.75V9.25" stroke-miterlimit="10" stroke-linecap="round"/>
<path d="M14.165 13L16.33 14.25" stroke-miterlimit="10" stroke-linecap="round"/>
<path d="M7.67 14.25L9.835 13" stroke-miterlimit="10" stroke-linecap="round"/>
<path d="M12 9.25C11.5055 9.25 11.0222 9.39662 10.6111 9.67133C10.2 9.94603 9.87952 10.3365 9.6903 10.7933C9.50108 11.2501 9.45157 11.7528 9.54804 12.2377C9.6445 12.7227 9.8826 13.1681 10.2322 13.5178C10.5819 13.8674 11.0273 14.1055 11.5123 14.202C11.9972 14.2984 12.4999 14.2489 12.9567 14.0597C13.4135 13.8705 13.804 13.55 14.0787 13.1389C14.3534 12.7278 14.5 12.2445 14.5 11.75C14.5 11.087 14.2366 10.4511 13.7678 9.98223C13.2989 9.51339 12.663 9.25 12 9.25V9.25Z" stroke-linecap="round" stroke-linejoin="round"/>
</svg>
