<svg width="24" height="24" viewBox="0 0 24 24" fill="none" xmlns="http://www.w3.org/2000/svg">
<path fill-rule="evenodd" clip-rule="evenodd" d="M10.9431 2.05842C9.78181 2.21883 8.85534 2.49397 7.79418 2.99355C3.91488 4.81988 1.61164 8.84088 2.05411 13.0148C2.19014 14.2976 2.41462 15.1041 2.95438 16.2489C4.25815 19.0143 6.82674 21.052 9.95389 21.8019C11.135 22.085 13.4693 22.0612 14.7306 21.753C17.2011 21.1495 19.3994 19.6313 20.8174 17.5497C21.2858 16.862 21.9638 15.496 21.9712 15.2254C21.9729 15.1639 21.4704 14.4323 20.8547 13.5997C20.2389 12.767 19.7351 12.0379 19.7351 11.9792C19.7351 11.9206 20.2447 11.1866 20.8675 10.3481L22 8.82362L21.8049 8.3106C20.7158 5.4473 17.8916 3.05605 14.6969 2.29248C13.5951 2.02903 11.9141 1.92424 10.9431 2.05842ZM13.6185 6.48722C13.9748 6.5778 14.527 6.77307 14.8455 6.92124C15.9759 7.44693 16.4713 7.9617 18.7611 10.9896L19.5226 11.9965L18.1579 13.776C16.504 15.9329 16.2757 16.18 15.4459 16.7107C14.4317 17.3592 13.4936 17.6268 12.2337 17.6267C10.5661 17.6266 9.26735 17.0952 8.09535 15.9334C5.89568 13.7531 5.90598 10.1791 8.11808 8.02617C9.56024 6.6226 11.7457 6.01113 13.6185 6.48722Z" fill="url(#paint0_linear_1493:4231)"/>
<defs>
<linearGradient id="paint0_linear_1493:4231" x1="12.263" y1="22.0327" x2="12.263" y2="-6.1952" gradientUnits="userSpaceOnUse">
<stop stop-color="#BAB8C0"/>
<stop offset="1" stop-color="#BAB8C0" stop-opacity="0"/>
</linearGradient>
</defs>
</svg>
