<svg width="24" height="24" viewBox="0 0 24 24" fill="none" xmlns="http://www.w3.org/2000/svg">
<path fill-rule="evenodd" clip-rule="evenodd" d="M6.91448 7.01735C2.93456 10.9708 1.89432 12.0597 2.00823 12.1537C2.08785 12.2193 2.13114 12.2945 2.10456 12.3209C2.05911 12.3662 11.3052 21.5842 11.773 21.9598C11.9846 22.1299 12.1596 21.969 16.996 17.1616C19.7482 14.4258 22 12.1146 22 12.0254C22 11.8542 16.1572 5.98889 15.9867 5.98889C15.932 5.98889 14.5546 7.30759 12.9259 8.91945C10.0971 11.7188 9.95558 11.8419 9.76313 11.6688C9.52577 11.4553 9.45157 11.4461 9.27582 11.6087C9.18101 11.6965 9.15975 12.1057 9.19902 13.0901L9.25326 14.4503L9.57383 14.6027C9.78407 14.7025 10.2581 14.7538 10.9514 14.7517C12.1192 14.748 12.4046 14.6221 12.2902 14.1605C12.239 13.9541 12.4534 13.6912 13.5888 12.5673C14.3367 11.8269 14.9486 11.1658 14.9486 11.098C14.9486 11.0303 14.8754 10.9145 14.7859 10.8406C14.6964 10.7668 14.6232 10.6692 14.6232 10.6236C14.6232 10.5781 15.209 10.5332 15.925 10.5241L17.2268 10.5074V11.806C17.2268 12.9871 17.1524 13.3135 16.9555 12.997C16.9187 12.9377 16.8055 12.8891 16.7041 12.8891C16.6027 12.8891 15.4954 13.908 14.2434 15.1534L11.9671 17.4176L9.22701 14.6959C7.71996 13.199 6.48694 11.9252 6.48694 11.8651C6.48694 11.805 8.19555 10.0583 10.2838 7.98349C12.3721 5.90867 14.0807 4.16129 14.0807 4.10059C14.0807 3.99331 12.1222 1.99935 12.0175 2C11.9889 2.00022 9.69251 4.258 6.91448 7.01735Z" fill="#BAB8C0"/>
</svg>
