<svg width="24" height="24" viewBox="0 0 24 24" fill="none" xmlns="http://www.w3.org/2000/svg">
<path fill-rule="evenodd" clip-rule="evenodd" d="M14.1667 2.05858C13.9067 2.13345 13.7152 2.24842 13.4127 2.51108C13.2774 2.62862 11.6517 4.22412 9.8 6.05666L6.43333 9.38856L6.41497 7.21739C6.40093 5.55539 6.38637 5.01495 6.35283 4.91289C6.2599 4.62982 6.10263 4.37482 5.896 4.17209C5.5514 3.83399 5.18917 3.68712 4.69987 3.68712C3.92607 3.68712 3.32557 4.13065 3.0629 4.89622C3.00203 5.07359 3 5.30449 3 11.9962V18.9129L3.07613 19.1332C3.263 19.6738 3.659 20.061 4.2 20.2321C4.45547 20.3129 4.9167 20.3174 5.1782 20.2416C5.72023 20.0845 6.14487 19.6682 6.34297 19.0995C6.38903 18.9673 6.3989 18.6472 6.41487 16.7652L6.43333 14.5842L9.98727 18.1008C11.9419 20.035 13.6128 21.6649 13.7004 21.7229C13.9733 21.9037 14.1974 21.9721 14.5707 21.9886C14.8246 21.9998 14.9565 21.9895 15.104 21.9469C15.5836 21.8085 15.5057 21.8782 18.3554 19.0319C21.1635 16.2269 21.1083 16.2879 21.2418 15.8487C21.309 15.6279 21.309 15.1313 21.2418 14.9105C21.0699 14.3449 20.6314 13.9029 20.0858 13.745C19.65 13.619 19.2501 13.6577 18.8167 13.868C18.535 14.0047 18.5217 14.017 16.5914 15.9414L14.6494 17.8773L13.8081 17.0431C13.3453 16.5843 12.0067 15.2598 10.8333 14.0998L8.7 11.9906L11.6667 9.04596L14.6333 6.10136L16.55 8.01222C18.5438 9.99999 18.6954 10.1342 19.0777 10.2506C19.3406 10.3306 19.8741 10.3303 20.1098 10.25C20.6594 10.0628 21.0736 9.63536 21.2418 9.08199C21.309 8.86119 21.309 8.36459 21.2418 8.14379C21.1095 7.70856 21.1496 7.75306 18.4882 5.08549C17.1014 3.69542 15.8767 2.48615 15.7667 2.39825C15.5321 2.21075 15.3704 2.12495 15.1115 2.05045C14.8669 1.98005 14.4261 1.98385 14.1667 2.05858ZM14.4667 10.2843C13.8241 10.3686 13.2779 10.7941 13.0458 11.3912C12.9439 11.6533 12.9209 12.1784 12.9993 12.4502C13.1661 13.0278 13.5796 13.4588 14.15 13.6495C14.4113 13.7368 14.9629 13.7302 15.2224 13.6365C15.9289 13.3816 16.3833 12.7432 16.3833 12.0058C16.3833 11.2373 15.9015 10.583 15.1667 10.3534C14.9891 10.2979 14.6318 10.2626 14.4667 10.2843Z" fill="#BAB8C0"/>
</svg>
