<?xml version="1.0" standalone="no"?>
<!DOCTYPE svg PUBLIC "-//W3C//DTD SVG 20010904//EN"
 "http://www.w3.org/TR/2001/REC-SVG-20010904/DTD/svg10.dtd">
<svg version="1.0" xmlns="http://www.w3.org/2000/svg"
 width="500.000000pt" height="500.000000pt" viewBox="0 0 500.000000 500.000000"
 preserveAspectRatio="xMidYMid meet">
<metadata>
Created by potrace 1.14, written by Peter Selinger 2001-2017
</metadata>
<g transform="translate(0.000000,500.000000) scale(0.100000,-0.100000)"
fill="#000000" stroke="none">
<path d="M2370 4687 c-69 -33 -217 -105 -330 -160 -214 -104 -430 -209 -685
-332 -82 -40 -262 -127 -399 -194 -136 -66 -252 -121 -257 -121 -5 0 -9 -214
-9 -501 l0 -500 237 -116 c676 -328 922 -448 1398 -678 157 -76 531 -258 795
-387 l155 -76 -75 -35 c-95 -44 -600 -289 -661 -321 l-46 -24 -44 24 c-24 13
-136 68 -249 123 -113 54 -299 145 -415 201 -115 56 -259 126 -320 155 -60 29
-222 108 -360 175 -137 67 -284 138 -325 157 -41 19 -78 37 -82 40 -5 2 -8
-220 -8 -494 l0 -499 43 -19 c23 -10 161 -77 307 -148 146 -71 328 -160 405
-197 77 -37 226 -109 330 -160 105 -51 249 -121 320 -155 72 -35 190 -93 264
-129 l134 -66 91 44 c105 51 429 209 696 338 102 50 235 114 295 143 189 91
628 304 675 329 l45 23 3 497 2 497 -217 106 c-120 58 -258 125 -308 148 -49
23 -189 91 -310 150 -293 143 -516 251 -710 345 -88 43 -259 126 -380 185
-121 59 -260 126 -310 150 -120 57 -339 165 -344 170 -2 3 7 9 20 14 13 5 139
65 279 134 339 165 468 227 474 227 6 0 144 -66 461 -220 340 -166 538 -261
670 -325 72 -34 243 -118 380 -185 138 -67 260 -126 272 -131 l23 -8 0 495 0
495 -258 126 c-141 69 -315 154 -387 188 -142 68 -355 172 -650 315 -104 51
-255 124 -335 162 -80 39 -152 74 -160 78 -10 5 -58 -13 -140 -53z"/>
</g>
</svg>
