<svg width="25" height="25" viewBox="0 0 25 25" fill="none" xmlns="http://www.w3.org/2000/svg">
<path d="M12.1312 0C5.5005 0 0.104996 5.394 0.104996 12.0255C0.104996 18.657 5.5005 24.051 12.1312 24.051C18.762 24.051 24.1575 18.657 24.1575 12.0255C24.1575 5.394 18.762 0 12.1312 0ZM12.1312 23.25C5.94225 23.25 0.907496 18.2145 0.907496 12.0255C0.907496 5.8365 5.94225 0.801 12.1312 0.801C18.3202 0.801 23.355 5.8365 23.355 12.0255C23.355 18.2145 18.3202 23.25 12.1312 23.25Z" fill="#BAB8C0"/>
<path d="M10.4492 12.5432C10.4492 12.6431 10.4169 12.7408 10.3562 12.8239C10.2956 12.907 10.2094 12.9717 10.1085 13.0099C10.0077 13.0482 9.89671 13.0582 9.78965 13.0387C9.68259 13.0192 9.58425 12.9711 9.50706 12.9004C9.42987 12.8298 9.37731 12.7398 9.35601 12.6418C9.33471 12.5438 9.34564 12.4422 9.38742 12.3499C9.42919 12.2576 9.49993 12.1787 9.59069 12.1232C9.68146 12.0677 9.78817 12.0381 9.89733 12.0381C10.0437 12.0381 10.1841 12.0913 10.2876 12.186C10.3911 12.2808 10.4492 12.4092 10.4492 12.5432ZM14.3127 12.0381C14.2035 12.0381 14.0968 12.0677 14.0061 12.1232C13.9153 12.1787 13.8446 12.2576 13.8028 12.3499C13.761 12.4422 13.7501 12.5438 13.7714 12.6418C13.7927 12.7398 13.8452 12.8298 13.9224 12.9004C13.9996 12.9711 14.0979 13.0192 14.205 13.0387C14.3121 13.0582 14.423 13.0482 14.5239 13.0099C14.6247 12.9717 14.7109 12.907 14.7716 12.8239C14.8322 12.7408 14.8646 12.6431 14.8646 12.5432C14.8646 12.4092 14.8065 12.2808 14.703 12.186C14.5994 12.0913 14.4591 12.0381 14.3127 12.0381ZM19.8171 15.0385C18.7065 15.9219 17.209 16.5927 15.4862 16.9782C15.4218 16.9926 15.3557 16.9999 15.2894 17C15.1362 16.9997 14.9861 16.9602 14.856 16.886C14.726 16.8118 14.6212 16.7058 14.5535 16.58L13.812 15.2225C13.2459 15.2888 12.6757 15.3219 12.105 15.3216C11.5343 15.3219 10.9642 15.2888 10.3981 15.2225L9.65641 16.58C9.57394 16.7338 9.43647 16.8572 9.26682 16.9296C9.09717 17.002 8.90556 17.0192 8.7238 16.9782C7.00106 16.5927 5.50349 15.922 4.39303 15.0385C4.27197 14.9426 4.18366 14.8168 4.13863 14.6762C4.09361 14.5356 4.09379 14.386 4.13914 14.2455L6.48301 7.09443C6.51825 6.98627 6.57951 6.88671 6.66227 6.80304C6.74504 6.71937 6.84722 6.65373 6.96132 6.61092C7.63859 6.35715 8.33903 6.15865 9.05447 6.01773C9.25428 5.97746 9.46329 6.00634 9.6412 6.09881C9.8191 6.19128 9.95328 6.34079 10.0179 6.51848L10.4964 7.83248C11.5649 7.7147 12.6451 7.7147 13.7136 7.83248L14.1922 6.51854C14.2567 6.34085 14.3909 6.19135 14.5688 6.09888C14.7467 6.00641 14.9557 5.97752 15.1555 6.01779C15.871 6.15869 16.5715 6.35719 17.2488 6.61098C17.3629 6.65378 17.465 6.71941 17.5478 6.80307C17.6305 6.88673 17.6918 6.98628 17.727 7.09443L20.0709 14.2455C20.1162 14.386 20.1164 14.5356 20.0714 14.6762C20.0263 14.8168 19.938 14.9426 19.817 15.0385H19.8171ZM19.5422 14.3906L17.1983 7.2396C17.1865 7.20343 17.166 7.17013 17.1383 7.14216C17.1106 7.11418 17.0764 7.09224 17.0383 7.07795C16.3911 6.83551 15.7219 6.64591 15.0383 6.51134C14.9715 6.49789 14.9016 6.50748 14.8421 6.53829C14.7826 6.56909 14.7376 6.61893 14.7158 6.67823L14.269 7.90503C14.8175 7.98698 15.3587 8.10617 15.8879 8.26162C15.9223 8.27186 15.9543 8.28822 15.9818 8.30975C16.0094 8.33129 16.0321 8.35758 16.0485 8.38714C16.065 8.41669 16.0749 8.44892 16.0778 8.48199C16.0806 8.51506 16.0764 8.54832 16.0652 8.57987C16.054 8.61143 16.0361 8.64065 16.0126 8.66588C15.9891 8.69112 15.9603 8.71186 15.928 8.72693C15.8957 8.742 15.8605 8.7511 15.8244 8.75371C15.7883 8.75633 15.7519 8.7524 15.7175 8.74216C14.632 8.41974 13.3828 8.24931 12.105 8.24931C10.8274 8.24931 9.57825 8.4198 8.49241 8.74216C8.42279 8.76283 8.34705 8.75735 8.28185 8.72691C8.21665 8.69647 8.16733 8.64357 8.14474 8.57984C8.12215 8.51612 8.12814 8.44679 8.1614 8.38711C8.19466 8.32743 8.25245 8.28229 8.32208 8.26162C8.85132 8.1062 9.39245 7.98701 9.941 7.90503L9.49422 6.67823C9.47239 6.61891 9.4274 6.56907 9.36787 6.53826C9.30834 6.50746 9.23847 6.49787 9.17169 6.51134C8.48813 6.64591 7.8189 6.83549 7.17181 7.07789C7.13363 7.09218 7.09943 7.11412 7.07172 7.1421C7.04401 7.17007 7.0235 7.20336 7.01168 7.23954L4.66781 14.3907C4.65286 14.4382 4.65313 14.4885 4.66861 14.5358C4.68409 14.5831 4.71411 14.6253 4.75509 14.6574C5.79953 15.4882 7.21713 16.1211 8.85489 16.4875C8.91513 16.5002 8.97827 16.4939 9.03415 16.4697C9.09002 16.4455 9.13536 16.4048 9.16286 16.3541L9.82468 15.1424C9.31587 15.0618 8.81381 14.9487 8.32214 14.8042C8.28767 14.794 8.25574 14.7776 8.22817 14.7561C8.20061 14.7346 8.17794 14.7083 8.16148 14.6787C8.14502 14.6492 8.13507 14.6169 8.13222 14.5839C8.12936 14.5508 8.13365 14.5175 8.14484 14.486C8.15603 14.4544 8.1739 14.4252 8.19743 14.4C8.22096 14.3747 8.24969 14.354 8.28197 14.3389C8.31426 14.3238 8.34948 14.3147 8.38561 14.3121C8.42174 14.3095 8.45808 14.3134 8.49255 14.3237C9.57797 14.646 10.8272 14.8165 12.105 14.8165C13.3828 14.8165 14.632 14.646 15.7175 14.3236C15.7871 14.3029 15.8628 14.3084 15.928 14.3389C15.9932 14.3693 16.0426 14.4222 16.0652 14.4859C16.0878 14.5496 16.0818 14.619 16.0485 14.6786C16.0153 14.7383 15.9575 14.7835 15.8879 14.8042C15.3962 14.9487 14.8941 15.0617 14.3853 15.1424L15.0472 16.3541C15.0748 16.4047 15.1201 16.4454 15.1759 16.4696C15.2318 16.4938 15.2949 16.5001 15.3551 16.4874C16.9929 16.121 18.4105 15.4882 19.455 14.6573C19.496 14.6252 19.526 14.583 19.5414 14.5357C19.5569 14.4884 19.5572 14.4381 19.5422 14.3907V14.3906Z" fill="#BAB8C0"/>
</svg>
