<svg width="20" height="12" viewBox="0 0 20 12" fill="none" xmlns="http://www.w3.org/2000/svg">
<path d="M11.2812 5.99999C11.2812 9.15554 8.75625 11.7143 5.64 11.7143C4.90033 11.7153 4.16771 11.5683 3.48396 11.2816C2.80022 10.995 2.17875 10.5744 1.65502 10.0438C1.1313 9.51314 0.715587 8.88292 0.431617 8.18909C0.147648 7.49526 0.000984258 6.7514 0 5.99999C0 2.84317 2.525 0.285712 5.64 0.285712C6.37978 0.284544 7.11253 0.431431 7.79642 0.717984C8.48031 1.00454 9.10193 1.42514 9.62579 1.95578C10.1496 2.48642 10.5655 3.11669 10.8495 3.8106C11.1336 4.50452 11.2803 5.24847 11.2812 5.99999ZM17.4688 5.99999C17.4688 8.97142 16.2062 11.379 14.6488 11.379C13.0912 11.379 11.8288 8.97015 11.8288 5.99999C11.8288 3.02857 13.0912 0.62095 14.6488 0.62095C16.2062 0.62095 17.4688 3.02984 17.4688 5.99999ZM20 5.99999C20 8.66158 19.5562 10.819 19.0075 10.819C18.46 10.819 18.0163 8.66031 18.0163 5.99999C18.0163 3.33841 18.46 1.18095 19.0087 1.18095C19.5562 1.18095 20 3.33841 20 5.99999Z"/>
</svg>
