<svg width="25" height="25" viewBox="0 0 25 25" fill="none" xmlns="http://www.w3.org/2000/svg">
<path d="M12.0787 0C5.448 0 0.0524979 5.394 0.0524979 12.0255C0.0524979 18.657 5.448 24.051 12.0787 24.051C18.7095 24.051 24.105 18.657 24.105 12.0255C24.105 5.394 18.7095 0 12.0787 0ZM12.0787 23.25C5.88975 23.25 0.854998 18.2145 0.854998 12.0255C0.854998 5.8365 5.88975 0.801 12.0787 0.801C18.2677 0.801 23.3025 5.8365 23.3025 12.0255C23.3025 18.2145 18.2677 23.25 12.0787 23.25Z" fill="#BAB8C0"/>
<path d="M6.75718 8.84266C6.76534 8.7615 6.7544 8.67956 6.72523 8.60339C6.69606 8.52722 6.64947 8.45893 6.58918 8.40399L5.34384 6.89266V6.66666H9.20918L12.1972 13.27L14.8238 6.66666H18.5092V6.89266L17.4445 7.91999C17.3994 7.95482 17.3646 8.00125 17.3438 8.05432C17.323 8.1074 17.317 8.16512 17.3265 8.22132V15.7773C17.317 15.8335 17.323 15.8912 17.3438 15.9443C17.3646 15.9974 17.3994 16.0438 17.4445 16.0787L18.4845 17.1067V17.3333H13.2552V17.1073L14.3325 16.054C14.4385 15.9473 14.4385 15.916 14.4385 15.7533V9.64532L11.4438 17.308H11.0398L7.55318 9.64532V14.7813C7.52451 14.9967 7.59584 15.2147 7.74651 15.3707L9.14718 17.0827V17.308H5.17584V17.0827L6.57584 15.3707C6.64992 15.2934 6.70489 15.1998 6.73638 15.0975C6.76786 14.9952 6.77499 14.8869 6.75718 14.7813V8.84266Z" fill="#BAB8C0"/>
</svg>
