<svg width="25" height="25" viewBox="0 0 25 25" fill="none" xmlns="http://www.w3.org/2000/svg">
<path d="M12.0262 0C5.3955 0 0 5.394 0 12.0255C0 18.657 5.3955 24.051 12.0262 24.051C18.657 24.051 24.0525 18.657 24.0525 12.0255C24.0525 5.394 18.657 0 12.0262 0ZM12.0262 23.25C5.83725 23.25 0.8025 18.2145 0.8025 12.0255C0.8025 5.8365 5.83725 0.801 12.0262 0.801C18.2152 0.801 23.25 5.8365 23.25 12.0255C23.25 18.2145 18.2152 23.25 12.0262 23.25Z" fill="#BAB8C0"/>
<path d="M17.6566 6.22446C17.5231 6.11212 17.3622 6.03854 17.1908 6.01154C17.0195 5.98454 16.8442 6.00512 16.6834 6.07109L5.59212 10.6175C5.41289 10.6923 5.2603 10.8207 5.1546 10.9856C5.04891 11.1505 4.99511 11.3441 5.00035 11.5408C5.00559 11.7375 5.06962 11.9279 5.18393 12.0868C5.29825 12.2456 5.45745 12.3654 5.6404 12.4303L8.03361 13.2738L9.33049 17.6273C9.33297 17.6361 9.34102 17.6417 9.34473 17.6499C9.35809 17.6846 9.37761 17.7166 9.4023 17.7442C9.43983 17.7867 9.48826 17.8178 9.5422 17.8341C9.5484 17.8366 9.55273 17.8422 9.55892 17.8435H9.56263L9.56449 17.8441C9.61238 17.8546 9.66215 17.852 9.70873 17.8366C9.71368 17.8353 9.71863 17.8353 9.7242 17.8334C9.76892 17.8175 9.8094 17.7912 9.84244 17.7567C9.84615 17.7523 9.85234 17.7517 9.85606 17.7479L11.7212 15.6573L14.4431 17.7976C14.6084 17.929 14.8121 18 15.0219 18C15.4763 18 15.8682 17.6769 15.9616 17.2262L17.9809 7.15788C18.0152 6.98695 18.0031 6.8098 17.946 6.6453C17.8889 6.4808 17.7888 6.33513 17.6566 6.22383V6.22446ZM10.0071 14.1004L9.56944 16.2608L8.65636 13.1946L13.1846 10.7998L10.0913 13.9414C10.0485 13.9848 10.0192 14.0401 10.0071 14.1004V14.1004ZM15.355 17.0999C15.3434 17.1569 15.3175 17.2099 15.2799 17.2538C15.2423 17.2977 15.1942 17.3311 15.1402 17.3507C15.0875 17.3713 15.0305 17.3776 14.9747 17.369C14.9189 17.3604 14.8663 17.3372 14.822 17.3017L11.8735 14.9829C11.8119 14.9346 11.7346 14.9116 11.657 14.9186C11.5794 14.9256 11.5073 14.962 11.455 15.0206L10.1569 16.4732L10.594 14.3191L15.0442 9.79974C15.0963 9.74664 15.128 9.67638 15.1336 9.60164C15.1392 9.52689 15.1183 9.45258 15.0747 9.39211C15.031 9.33165 14.9675 9.28901 14.8957 9.27189C14.8238 9.25477 14.7483 9.26431 14.6827 9.29877L8.2676 12.6918L5.84283 11.8357C5.77854 11.8141 5.72246 11.7727 5.68241 11.7173C5.64236 11.6619 5.62032 11.5951 5.61936 11.5264C5.61627 11.4571 5.63452 11.3885 5.67157 11.3301C5.70862 11.2718 5.76263 11.2266 5.82611 11.2008L16.9156 6.6544C16.9724 6.62988 17.0348 6.62195 17.0959 6.6315C17.1569 6.64105 17.2141 6.6677 17.261 6.70845C17.3077 6.74679 17.3429 6.79754 17.3628 6.85503C17.3827 6.91253 17.3865 6.97451 17.3737 7.03405L15.355 17.1005V17.0999Z" fill="#BAB8C0"/>
</svg>
