<svg width="20" height="18" viewBox="0 0 20 18" fill="none" xmlns="http://www.w3.org/2000/svg">
<path d="M19.1315 2.6095C19.2614 2.36893 19.3685 2.11669 19.4514 1.8561C19.4897 1.73522 19.4905 1.60556 19.4536 1.48423C19.4167 1.36291 19.3439 1.25562 19.2447 1.17655C19.1456 1.09747 19.0248 1.05031 18.8983 1.04131C18.7718 1.03231 18.6456 1.06188 18.5363 1.12613C17.9359 1.4828 17.2859 1.74854 16.6076 1.91468C15.7842 1.17156 14.7149 0.759586 13.6057 0.758209C13.0031 0.758672 12.4068 0.880808 11.8526 1.11729C11.2983 1.35378 10.7976 1.69974 10.3802 2.13444C9.96294 2.56915 9.63771 3.08364 9.42404 3.64708C9.21038 4.21051 9.11269 4.81129 9.13682 5.4134C6.50167 5.08166 4.09536 3.74823 2.41709 1.68972C2.35279 1.61173 2.27061 1.55042 2.17754 1.51098C2.08447 1.47155 1.98326 1.45516 1.88251 1.46322C1.78175 1.47127 1.68442 1.50352 1.5988 1.55723C1.51317 1.61094 1.44178 1.68453 1.39067 1.77174C1.00638 2.43132 0.797505 3.17837 0.783967 3.94162C0.770429 4.70487 0.952684 5.45886 1.31334 6.13165C1.22489 6.14658 1.13991 6.17755 1.0626 6.22305C0.96786 6.28346 0.889862 6.36675 0.8358 6.46525C0.781739 6.56375 0.753355 6.67428 0.753267 6.78664C0.753267 8.11652 1.34498 9.33744 2.29875 10.167L2.25774 10.208C2.18573 10.2895 2.13619 10.3883 2.114 10.4947C2.09181 10.6011 2.09774 10.7115 2.13119 10.815C2.33008 11.4354 2.66216 12.0049 3.10419 12.4836C3.54622 12.9622 4.08752 13.3385 4.6902 13.586C3.4524 14.1899 2.06717 14.4254 0.699368 14.2645C0.558769 14.2501 0.417388 14.2829 0.297376 14.3575C0.177364 14.4321 0.085502 14.5445 0.0361824 14.6769C-0.0111802 14.8103 -0.012069 14.9558 0.0336592 15.0898C0.0793875 15.2238 0.16905 15.3384 0.288099 15.4151C2.14761 16.6085 4.31086 17.2426 6.5204 17.2418C13.7615 17.2418 18.0898 11.3598 18.0898 5.67352L18.0887 5.48136C18.7904 4.93348 19.4 4.27684 19.8943 3.53632C19.9691 3.42438 20.0059 3.2913 19.9992 3.15681C19.9925 3.02231 19.9427 2.89354 19.8572 2.78956C19.7716 2.68559 19.6548 2.61193 19.5241 2.5795C19.3934 2.54707 19.2557 2.55759 19.1315 2.6095ZM17.0869 4.66585C17.0018 4.72699 16.9335 4.80846 16.888 4.90282C16.8426 4.99717 16.8215 5.10141 16.8267 5.20601C16.8338 5.36067 16.8373 5.51768 16.8373 5.67235C16.8373 10.7435 12.9788 15.9892 6.52158 15.9892C5.36991 15.9897 4.22637 15.7964 3.13886 15.4174C4.44132 15.1678 5.66486 14.6093 6.70671 13.7888C6.80812 13.7088 6.88237 13.5995 6.91928 13.4757C6.9562 13.3519 6.954 13.2198 6.91296 13.0973C6.87193 12.9749 6.79407 12.8681 6.69004 12.7916C6.58601 12.715 6.46088 12.6725 6.33176 12.6698C5.82655 12.6601 5.33068 12.5319 4.88414 12.2954C4.4376 12.0589 4.05289 11.7207 3.76104 11.3083C4.05748 11.2883 4.34806 11.2391 4.63044 11.163C4.76711 11.1264 4.88734 11.0446 4.97153 10.9309C5.05572 10.8172 5.09889 10.6783 5.09399 10.5369C5.0891 10.3955 5.03643 10.2599 4.94458 10.1523C4.85274 10.0447 4.72713 9.97143 4.58826 9.94439C4.01767 9.82832 3.48936 9.55931 3.05987 9.16614C2.63037 8.77297 2.31585 8.27043 2.14994 7.71229C2.46161 7.79079 2.78149 7.83649 3.10137 7.84703C3.37672 7.84586 3.63215 7.67714 3.71768 7.41233C3.80322 7.14752 3.70245 6.85577 3.46928 6.7011C2.91796 6.33378 2.49347 5.80523 2.25377 5.18763C2.01407 4.57004 1.97085 3.8935 2.13002 3.25043C4.16531 5.33878 6.91357 6.58236 9.82579 6.73274C10.032 6.73391 10.2125 6.66009 10.3378 6.50894C10.4632 6.35779 10.5112 6.15743 10.4667 5.96527C10.3065 5.27514 10.3781 4.55142 10.6707 3.90613C10.9632 3.26083 11.4602 2.72994 12.0849 2.3956C12.7095 2.06126 13.4269 1.94212 14.1261 2.05662C14.8253 2.17112 15.4673 2.51286 15.9526 3.02898C16.0254 3.10659 16.1167 3.16442 16.2179 3.19701C16.3192 3.2296 16.4271 3.23589 16.5315 3.21528C16.7248 3.17661 16.9158 3.13209 17.1044 3.08053C17.0194 3.14419 16.931 3.20326 16.8396 3.25746C16.7181 3.33189 16.6256 3.44549 16.5773 3.57954C16.529 3.71359 16.5278 3.8601 16.5739 3.99491C16.6201 4.12973 16.7107 4.24481 16.831 4.32119C16.9513 4.39757 17.094 4.4307 17.2357 4.4151L17.4489 4.38816C17.3315 4.48489 17.2107 4.57751 17.0869 4.66585Z"/>
</svg>
