<svg width="24" height="24" viewBox="0 0 24 24" fill="none" xmlns="http://www.w3.org/2000/svg">
<g clip-path="url(#clip0_2772_14587)">
<path d="M12 -0.0255127C5.36925 -0.0255127 -0.0262489 5.36849 -0.0262489 12C-0.0262489 18.6315 5.36925 24.0255 12 24.0255C18.6308 24.0255 24.0263 18.6315 24.0263 12C24.0263 5.36849 18.6308 -0.0255127 12 -0.0255127ZM12 23.2245C5.811 23.2245 0.776251 18.189 0.776251 12C0.776251 5.81099 5.811 0.775487 12 0.775487C18.189 0.775487 23.2238 5.81099 23.2238 12C23.2238 18.189 18.189 23.2245 12 23.2245Z" fill="#BAB8C0"/>
<path d="M18.5955 8.28449C18.6787 8.1305 18.7472 7.96904 18.8003 7.80224C18.8248 7.72487 18.8253 7.64187 18.8017 7.56421C18.7781 7.48655 18.7314 7.41788 18.668 7.36726C18.6045 7.31664 18.5272 7.28646 18.4463 7.2807C18.3653 7.27494 18.2845 7.29387 18.2145 7.33499C17.8302 7.56329 17.4142 7.73339 16.98 7.83974C16.453 7.36407 15.7685 7.10037 15.0585 7.09949C14.6728 7.09978 14.2911 7.17796 13.9363 7.32933C13.5816 7.48071 13.261 7.70215 12.9939 7.9804C12.7268 8.25866 12.5186 8.58798 12.3818 8.94863C12.2451 9.30928 12.1826 9.69384 12.198 10.0792C10.5113 9.8669 8.971 9.01337 7.89675 7.69574C7.85559 7.64582 7.80299 7.60657 7.74342 7.58133C7.68385 7.55609 7.61906 7.5456 7.55457 7.55076C7.49007 7.55591 7.42778 7.57655 7.37297 7.61093C7.31816 7.64532 7.27246 7.69242 7.23975 7.74824C6.99377 8.17043 6.86007 8.64861 6.8514 9.13716C6.84274 9.62571 6.9594 10.1083 7.19025 10.539C7.13363 10.5485 7.07924 10.5684 7.02975 10.5975C6.96911 10.6362 6.91918 10.6895 6.88458 10.7525C6.84998 10.8156 6.83181 10.8863 6.83175 10.9582C6.83175 11.8095 7.2105 12.591 7.821 13.122L7.79475 13.1482C7.74866 13.2004 7.71695 13.2636 7.70275 13.3317C7.68854 13.3999 7.69234 13.4705 7.71375 13.5367C7.84105 13.9339 8.05362 14.2984 8.33656 14.6048C8.61949 14.9112 8.96598 15.152 9.35175 15.3105C8.55944 15.697 7.67277 15.8477 6.79725 15.7447C6.70725 15.7356 6.61676 15.7565 6.53994 15.8043C6.46312 15.8521 6.40432 15.924 6.37275 16.0087C6.34243 16.0941 6.34187 16.1873 6.37114 16.2731C6.40041 16.3588 6.4578 16.4322 6.534 16.4812C7.72426 17.2452 9.10894 17.651 10.5233 17.6505C15.1583 17.6505 17.9288 13.8855 17.9288 10.2457L17.928 10.1227C18.3772 9.77205 18.7674 9.35173 19.0837 8.87774C19.1317 8.80608 19.1552 8.7209 19.1509 8.63481C19.1467 8.54872 19.1148 8.4663 19.06 8.39974C19.0052 8.33319 18.9305 8.28604 18.8468 8.26528C18.7632 8.24452 18.675 8.25126 18.5955 8.28449ZM17.2868 9.60074C17.2323 9.63987 17.1886 9.69202 17.1595 9.75242C17.1304 9.81281 17.1169 9.87954 17.1203 9.94649C17.1248 10.0455 17.127 10.146 17.127 10.245C17.127 13.491 14.6573 16.8487 10.524 16.8487C9.78683 16.8491 9.05486 16.7253 8.35875 16.4827C9.19245 16.323 9.97563 15.9655 10.6425 15.4402C10.7074 15.3891 10.7549 15.3191 10.7786 15.2399C10.8022 15.1606 10.8008 15.076 10.7745 14.9977C10.7483 14.9193 10.6984 14.8509 10.6318 14.8019C10.5652 14.7529 10.4851 14.7257 10.4025 14.724C10.0791 14.7178 9.76172 14.6357 9.47589 14.4843C9.19006 14.333 8.94381 14.1165 8.757 13.8525C8.94675 13.8397 9.13275 13.8082 9.3135 13.7595C9.40098 13.7361 9.47794 13.6837 9.53183 13.6109C9.58572 13.5381 9.61335 13.4493 9.61021 13.3587C9.60708 13.2682 9.57337 13.1815 9.51458 13.1126C9.45579 13.0437 9.37539 12.9968 9.2865 12.9795C8.92127 12.9052 8.58311 12.733 8.30819 12.4813C8.03327 12.2297 7.83195 11.908 7.72575 11.5507C7.92525 11.601 8.13 11.6302 8.33475 11.637C8.511 11.6362 8.6745 11.5282 8.72925 11.3587C8.784 11.1892 8.7195 11.0025 8.57025 10.9035C8.21735 10.6684 7.94564 10.33 7.79221 9.93473C7.63878 9.53941 7.61112 9.10637 7.713 8.69474C9.01577 10.0315 10.7749 10.8275 12.639 10.9237C12.771 10.9245 12.8865 10.8772 12.9668 10.7805C13.047 10.6837 13.0778 10.5555 13.0493 10.4325C12.9467 9.99074 12.9926 9.52749 13.1798 9.11445C13.367 8.7014 13.6852 8.36158 14.085 8.14757C14.4848 7.93356 14.9441 7.8573 15.3916 7.93059C15.8391 8.00388 16.2501 8.22263 16.5608 8.55299C16.6073 8.60267 16.6658 8.63968 16.7306 8.66054C16.7954 8.68141 16.8645 8.68543 16.9313 8.67224C17.055 8.64749 17.1772 8.61899 17.298 8.58599C17.2436 8.62674 17.187 8.66454 17.1285 8.69924C17.0507 8.74688 16.9915 8.81959 16.9606 8.9054C16.9297 8.9912 16.9289 9.08498 16.9584 9.17128C16.988 9.25757 17.046 9.33123 17.123 9.38013C17.2 9.42902 17.2913 9.45022 17.382 9.44024L17.5185 9.42299C17.4433 9.4849 17.366 9.54419 17.2868 9.60074Z" fill="#BAB8C0"/>
</g>
<defs>
<clipPath id="clip0_2772_14587">
<rect width="24" height="24" fill="white"/>
</clipPath>
</defs>
</svg>
