<svg width="232" height="159" viewBox="0 0 232 159" fill="none" xmlns="http://www.w3.org/2000/svg">
<mask id="mask0_2462_24913" style="mask-type:alpha" maskUnits="userSpaceOnUse" x="5" y="25" width="227" height="106">
<g opacity="0.6">
<path fill-rule="evenodd" clip-rule="evenodd" d="M41.4296 89.9407C37.0425 90.896 32.176 89.423 26.4593 83.1265C26.2737 82.922 25.9574 82.9068 25.753 83.0924C25.5486 83.278 25.5333 83.5942 25.7189 83.7987C31.58 90.2542 36.7858 91.9754 41.6424 90.9178C46.4225 89.8769 50.7239 86.1616 54.8468 82.1322C55.6873 81.3108 56.5209 80.4759 57.351 79.6445C60.6373 76.3529 63.8699 73.1153 67.2704 70.9745C69.3872 69.6418 71.5367 68.7578 73.7672 68.5533C75.9899 68.3495 78.3295 68.817 80.8398 70.2464C84.3217 72.229 88.7825 72.3873 93.733 72.3761C94.2978 72.3748 94.8699 72.3712 95.4489 72.3676C99.9873 72.3394 104.949 72.3086 110.16 73.3497C116.019 74.5203 122.189 77.0481 128.358 82.4823C134.533 87.9218 140.725 96.2908 146.594 109.172C149.675 115.935 156.469 118.759 164.739 119.718C172.781 120.651 182.375 119.84 191.668 119.054C191.936 119.032 192.204 119.009 192.471 118.987C202.052 118.178 211.239 117.454 218.172 118.682C221.632 119.295 224.476 120.386 226.52 122.151C228.548 123.904 229.828 126.356 230.102 129.789C230.124 130.064 230.365 130.27 230.641 130.248C230.916 130.226 231.121 129.985 231.099 129.71C230.806 126.044 229.421 123.337 227.173 121.395C224.94 119.466 221.898 118.326 218.346 117.697C211.257 116.441 201.925 117.185 192.387 117.99C192.138 118.011 191.888 118.032 191.639 118.053C182.301 118.842 172.794 119.646 164.854 118.725C156.699 117.779 150.363 115.034 147.504 108.758C141.595 95.7871 135.328 87.2893 129.019 81.732C122.705 76.1694 116.369 73.5704 110.356 72.369C105.038 71.3066 99.9718 71.3388 95.4404 71.3675C94.8616 71.3712 94.2915 71.3748 93.7308 71.3761C88.7383 71.3874 84.5496 71.208 81.3346 69.3774C78.6621 67.8557 76.1195 67.3335 73.6759 67.5575C71.2402 67.7808 68.9395 68.742 66.7376 70.1283C63.2317 72.3354 59.8938 75.6798 56.6001 78.9801C55.7806 79.8012 54.9638 80.6196 54.1478 81.4171C50.007 85.464 45.8933 88.9687 41.4296 89.9407Z" fill="#723946"/>
<path fill-rule="evenodd" clip-rule="evenodd" d="M25.4177 69.8123C25.2133 69.998 25.198 70.3142 25.3837 70.5186C31.2298 76.9576 36.3857 79.266 41.1896 79.1651C45.9592 79.065 50.2573 76.5862 54.3757 73.7583C55.3317 73.1018 56.2773 72.4274 57.2182 71.7563C60.3738 69.5057 63.4768 67.2926 66.7453 65.9192C70.9349 64.1588 75.3414 63.8085 80.3658 66.6693C83.8477 68.6519 88.3084 68.8103 93.259 68.799C93.8238 68.7977 94.3959 68.7942 94.9749 68.7906C99.5133 68.7624 104.475 68.7315 109.686 69.7726C115.545 70.9432 121.715 73.471 127.884 78.9053C134.059 84.3447 140.251 92.7137 146.12 105.595C149.2 112.358 155.995 115.182 164.265 116.141C172.307 117.074 181.901 116.263 191.194 115.477C191.462 115.455 191.73 115.432 191.997 115.41C201.578 114.601 210.765 113.877 217.698 115.105C221.158 115.718 224.002 116.809 226.046 118.574C228.074 120.327 229.354 122.779 229.628 126.212C229.65 126.487 229.891 126.693 230.167 126.671C230.442 126.649 230.647 126.408 230.625 126.132C230.332 122.467 228.947 119.76 226.699 117.818C224.466 115.888 221.424 114.749 217.872 114.12C210.783 112.864 201.451 113.608 191.913 114.413C191.664 114.434 191.414 114.455 191.165 114.476C181.827 115.265 172.32 116.069 164.38 115.148C156.225 114.202 149.889 111.457 147.03 105.181C141.121 92.2101 134.854 83.7123 128.545 78.1549C122.231 72.5924 115.895 69.9933 109.882 68.792C104.564 67.7296 99.4977 67.7617 94.9664 67.7905C94.3876 67.7941 93.8175 67.7977 93.2567 67.799C88.2642 67.8104 84.0756 67.6309 80.8606 65.8003C75.5193 62.759 70.78 63.1391 66.3579 64.9973C62.9763 66.4182 59.7476 68.7218 56.5752 70.9854C55.6493 71.6459 54.7283 72.3031 53.8096 72.9339C49.699 75.7565 45.6166 78.0719 41.1686 78.1654C36.7548 78.2581 31.8558 76.1594 26.124 69.8464C25.9384 69.642 25.6222 69.6267 25.4177 69.8123Z" fill="#723946"/>
<path fill-rule="evenodd" clip-rule="evenodd" d="M23.1536 59.414C22.9492 59.5996 22.9339 59.9158 23.1195 60.1203C28.9616 66.5548 34.2046 69.2691 39.1382 69.8298C44.0564 70.3887 48.5755 68.7944 52.9304 66.8144C54.0763 66.2934 55.2078 65.7477 56.3329 65.2051C59.5215 63.6672 62.6581 62.1544 65.9242 61.3005C70.294 60.158 74.8408 60.2181 79.8915 63.0939C83.3734 65.0765 87.8341 65.2349 92.7847 65.2236C93.3496 65.2223 93.9216 65.2188 94.5006 65.2152C99.039 65.187 104.001 65.1561 109.211 66.1972C115.07 67.3678 121.241 69.8956 127.41 75.3299C133.585 80.7694 139.777 89.1384 145.645 102.02C148.726 108.783 155.521 111.607 163.791 112.566C171.832 113.499 181.426 112.688 190.72 111.902C190.988 111.879 191.256 111.857 191.523 111.834C201.104 111.026 210.291 110.301 217.224 111.529C220.683 112.142 223.528 113.234 225.571 114.999C227.599 116.751 228.88 119.204 229.154 122.637C229.176 122.912 229.417 123.117 229.692 123.095C229.968 123.073 230.173 122.832 230.151 122.557C229.858 118.891 228.473 116.185 226.225 114.242C223.992 112.313 220.95 111.174 217.398 110.545C210.309 109.289 200.977 110.033 191.439 110.838C191.19 110.859 190.94 110.88 190.691 110.901C181.353 111.69 171.846 112.493 163.906 111.572C155.751 110.627 149.415 107.882 146.555 101.605C140.646 88.6347 134.379 80.1369 128.071 74.5795C121.756 69.017 115.42 66.418 109.407 65.2166C104.09 64.1542 99.0234 64.1863 94.4921 64.2151C93.9133 64.2187 93.3432 64.2224 92.7825 64.2236C87.79 64.235 83.6013 64.0556 80.3863 62.2249C75.0713 59.1986 70.2485 59.1363 65.6712 60.333C62.3029 61.2137 59.0373 62.7889 55.8229 64.3395C54.7154 64.8738 53.614 65.4051 52.5165 65.9041C48.195 67.8688 43.8861 69.363 39.2511 68.8362C34.6314 68.3112 29.5957 65.7656 23.8599 59.4481C23.6743 59.2436 23.3581 59.2284 23.1536 59.414Z" fill="#723946"/>
<path fill-rule="evenodd" clip-rule="evenodd" d="M23.3435 53.0626C23.139 53.2483 23.1238 53.5645 23.3094 53.7689C29.1469 60.1985 34.3386 63.0806 39.1967 63.9081C44.0469 64.7342 48.482 63.4964 52.7596 61.8623C53.9297 61.4153 55.0872 60.9403 56.2391 60.4675C63.5705 57.4588 70.6785 54.5417 79.417 59.5173C82.8989 61.4999 87.3596 61.6583 92.3102 61.647C92.875 61.6457 93.4471 61.6422 94.0261 61.6386C98.5645 61.6104 103.526 61.5795 108.737 62.6206C114.596 63.7912 120.767 66.319 126.935 71.7533C133.11 77.1927 139.302 85.5618 145.171 98.4432C148.252 105.206 155.046 108.03 163.316 108.989C171.358 109.922 180.952 109.111 190.246 108.325C190.514 108.303 190.781 108.28 191.048 108.258C200.629 107.449 209.816 106.725 216.749 107.953C220.209 108.566 223.054 109.657 225.097 111.422C227.125 113.175 228.405 115.627 228.68 119.06C228.702 119.335 228.942 119.541 229.218 119.519C229.493 119.497 229.698 119.256 229.676 118.98C229.383 115.315 227.999 112.608 225.751 110.666C223.518 108.736 220.475 107.597 216.924 106.968C209.834 105.712 200.502 106.456 190.964 107.261C190.715 107.282 190.466 107.303 190.216 107.324C180.878 108.113 171.371 108.917 163.432 107.996C155.276 107.05 148.94 104.305 146.081 98.0286C140.172 85.0581 133.905 76.5603 127.596 71.0029C121.282 65.4404 114.946 62.8414 108.933 61.64C103.616 60.5776 98.5489 60.6097 94.0176 60.6385C93.4388 60.6421 92.8687 60.6457 92.308 60.647C87.3155 60.6584 83.1268 60.4789 79.9118 58.6483C70.7209 53.4151 63.1282 56.5433 55.8042 59.5607C54.6655 60.0298 53.5334 60.4962 52.4027 60.9282C48.17 62.5451 43.9432 63.7021 39.3647 62.9223C34.7941 62.1438 29.7901 59.4192 24.0498 53.0967C23.8642 52.8923 23.548 52.877 23.3435 53.0626Z" fill="#723946"/>
<path fill-rule="evenodd" clip-rule="evenodd" d="M6.29713 72.9313C6.54323 78.6987 7.13783 83.6146 7.7874 85.829C7.86512 86.094 8.14294 86.2458 8.40792 86.1681C8.67291 86.0903 8.82469 85.8125 8.74697 85.5475C8.13466 83.4601 7.54213 78.6513 7.29623 72.8887C7.05098 67.1415 7.15298 60.5049 7.9073 54.7819C8.28451 51.9199 8.82305 49.301 9.55612 47.1418C10.2926 44.9724 11.2084 43.3194 12.3069 42.3341C13.374 41.3771 14.6288 41.0323 16.1717 41.4949C17.7585 41.9707 19.6799 43.3115 21.9721 45.8361C27.8065 52.2623 33.0391 55.4058 37.9557 56.6479C42.8695 57.8893 47.4038 57.2143 51.7956 56.1263C53.1124 55.8001 54.4146 55.4384 55.711 55.0785C63.1044 53.0254 70.3082 51.0251 78.9428 55.9416C82.4247 57.9241 86.8855 58.0825 91.836 58.0713C92.4008 58.07 92.9729 58.0664 93.5519 58.0628C98.0903 58.0346 103.052 58.0038 108.263 59.0448C114.122 60.2154 120.292 62.7432 126.461 68.1775C132.636 73.617 138.828 81.986 144.697 94.8674C147.778 101.63 154.572 104.454 162.842 105.413C170.884 106.346 180.478 105.535 189.771 104.75C190.039 104.727 190.307 104.704 190.574 104.682C200.155 103.873 209.342 103.149 216.275 104.377C219.735 104.99 222.579 106.081 224.623 107.847C226.651 109.599 227.931 112.051 228.205 115.484C228.227 115.76 228.468 115.965 228.744 115.943C229.019 115.921 229.224 115.68 229.202 115.405C228.909 111.739 227.524 109.032 225.276 107.09C223.043 105.161 220.001 104.022 216.449 103.392C209.36 102.136 200.028 102.88 190.49 103.685C190.241 103.706 189.991 103.727 189.742 103.749C180.404 104.538 170.897 105.341 162.957 104.42C154.802 103.474 148.466 100.73 145.607 94.4528C139.698 81.4823 133.431 72.9845 127.122 67.4271C120.808 61.8646 114.472 59.2656 108.459 58.0642C103.141 57.0018 98.0747 57.0339 93.5434 57.0627C92.9646 57.0664 92.3945 57.07 91.8338 57.0713C86.8413 57.0826 82.6526 56.9032 79.4376 55.0726C70.4155 49.9355 62.7807 52.0647 55.3804 54.1285C54.1002 54.4855 52.8272 54.8405 51.5551 55.1556C47.2208 56.2294 42.8775 56.8599 38.2007 55.6784C33.5267 54.4976 28.4558 51.4898 22.7124 45.1639C20.3734 42.5877 18.3028 41.0899 16.4589 40.5371C14.5714 39.9711 12.9571 40.4077 11.6392 41.5897C10.3527 42.7435 9.36732 44.5873 8.60921 46.8203C7.84765 49.0634 7.29797 51.7522 6.91587 54.6512C6.15153 60.4503 6.05038 67.1486 6.29713 72.9313Z" fill="#723946"/>
<path fill-rule="evenodd" clip-rule="evenodd" d="M5.82301 69.3572C6.06911 75.1245 6.66371 80.0405 7.31328 82.2549C7.391 82.5198 7.66882 82.6716 7.9338 82.5939C8.19878 82.5162 8.35057 82.2384 8.27285 81.9734C7.66053 79.886 7.06801 75.0771 6.82211 69.3145C6.57686 63.5673 6.67886 56.9307 7.43318 51.2078C7.81039 48.3458 8.34893 45.7268 9.082 43.5676C9.81852 41.3983 10.7342 39.7452 11.8328 38.76C12.8999 37.8029 14.1547 37.4581 15.6976 37.9208C17.2843 38.3965 19.2058 39.7373 21.4979 42.262C27.3324 48.6881 32.565 51.8317 37.4816 53.0738C42.3953 54.3152 46.9296 53.6401 51.3215 52.5521C52.6383 52.2259 53.9405 51.8643 55.2369 51.5043C62.6303 49.4513 69.834 47.4509 78.4687 52.3674C81.9506 54.35 86.4113 54.5083 91.3619 54.4971C91.9267 54.4958 92.4988 54.4923 93.0778 54.4887C97.6162 54.4604 102.578 54.4296 107.789 55.4707C113.648 56.6413 119.818 59.1691 125.987 64.6033C132.162 70.0428 138.354 78.4118 144.222 91.2933C147.303 98.0562 154.098 100.88 162.368 101.839C170.41 102.772 180.003 101.961 189.297 101.175C189.565 101.153 189.833 101.13 190.1 101.108C199.681 100.299 208.868 99.5746 215.801 100.803C219.261 101.416 222.105 102.507 224.148 104.273C226.177 106.025 227.457 108.477 227.731 111.91C227.753 112.185 227.994 112.391 228.269 112.369C228.545 112.347 228.75 112.106 228.728 111.831C228.435 108.165 227.05 105.458 224.802 103.516C222.569 101.587 219.527 100.447 215.975 99.8183C208.886 98.5623 199.554 99.3063 190.016 100.111C189.767 100.132 189.517 100.153 189.268 100.174C179.93 100.964 170.423 101.767 162.483 100.846C154.328 99.9 147.992 97.1555 145.132 90.8787C139.224 77.9081 132.957 69.4103 126.648 63.853C120.334 58.2904 113.997 55.6914 107.985 54.4901C102.667 53.4276 97.6006 53.4598 93.0693 53.4885C92.4905 53.4922 91.9204 53.4958 91.3596 53.4971C86.3672 53.5084 82.1785 53.329 78.9635 51.4984C69.9414 46.3613 62.3066 48.4905 54.9062 50.5543C53.6261 50.9113 52.353 51.2663 51.081 51.5815C46.7467 52.6552 42.4034 53.2858 37.7266 52.1042C33.0526 50.9234 27.9817 47.9156 22.2383 41.5898C19.8993 39.0136 17.8287 37.5158 15.9848 36.9629C14.0972 36.3969 12.483 36.8335 11.1651 38.0155C9.87857 39.1694 8.8932 41.0132 8.13509 43.2461C7.37353 45.4892 6.82385 48.178 6.44175 51.0771C5.67741 56.8761 5.57626 63.5745 5.82301 69.3572Z" fill="#723946"/>
<path fill-rule="evenodd" clip-rule="evenodd" d="M18.4859 33.858C18.2814 34.0436 18.2661 34.3598 18.4518 34.5642C24.2861 40.9903 29.6703 44.3817 34.8086 46.0119C39.944 47.6412 44.7868 47.4957 49.501 46.9264C51.0666 46.7374 52.6149 46.5034 54.155 46.2706C61.9302 45.0954 69.4948 43.9519 77.9946 48.7916C81.4765 50.7742 85.9372 50.9325 90.8878 50.9213C91.4526 50.92 92.0247 50.9165 92.6037 50.9129C97.1421 50.8847 102.104 50.8538 107.315 51.8949C113.173 53.0655 119.344 55.5933 125.513 61.0276C131.688 66.467 137.88 74.836 143.748 87.7175C146.829 94.4804 153.624 97.3043 161.894 98.2635C169.936 99.1962 179.53 98.3853 188.823 97.5997C189.091 97.577 189.359 97.5544 189.626 97.5319C199.207 96.7234 208.394 95.9989 215.327 97.2272C218.787 97.8401 221.631 98.9314 223.674 100.697C225.702 102.449 226.983 104.901 227.257 108.334C227.279 108.61 227.52 108.815 227.795 108.793C228.071 108.771 228.276 108.53 228.254 108.255C227.961 104.589 226.576 101.882 224.328 99.94C222.095 98.0108 219.053 96.8717 215.501 96.2425C208.412 94.9865 199.08 95.7306 189.542 96.5354C189.293 96.5564 189.043 96.5775 188.794 96.5986C179.456 97.3877 169.949 98.1911 162.009 97.2702C153.854 96.3243 147.518 93.5797 144.658 87.3029C138.749 74.3324 132.482 65.8346 126.174 60.2772C119.86 54.7147 113.523 52.1156 107.51 50.9143C102.193 49.8519 97.1265 49.884 92.5952 49.9128C92.0164 49.9164 91.4463 49.92 90.8855 49.9213C85.893 49.9326 81.7044 49.7532 78.4894 47.9226C69.664 42.8975 61.7185 44.1054 53.9296 45.2895C52.4093 45.5206 50.8949 45.7509 49.3811 45.9337C44.7263 46.4957 40.0484 46.6252 35.111 45.0588C30.1765 43.4932 24.9357 40.2181 19.1921 33.892C19.0065 33.6876 18.6903 33.6723 18.4859 33.858Z" fill="#723946"/>
<path fill-rule="evenodd" clip-rule="evenodd" d="M21.386 26.0719C21.1816 26.2575 21.1663 26.5737 21.3519 26.7782C27.1761 33.193 32.3349 36.84 37.1383 38.8679C41.9448 40.897 46.3588 41.289 50.6586 41.2494C52.2319 41.2349 53.7857 41.164 55.3369 41.0932C62.2796 40.7764 69.1703 40.462 77.5202 45.2164C81.0022 47.1989 85.4629 47.3573 90.4135 47.346C90.9783 47.3448 91.5504 47.3412 92.1293 47.3376C96.6677 47.3094 101.63 47.2786 106.84 48.3196C112.699 49.4902 118.87 52.018 125.039 57.4523C131.213 62.8918 137.406 71.2608 143.274 84.1422C146.355 90.9051 153.149 93.729 161.42 94.6882C169.461 95.621 179.055 94.81 188.349 94.0244C188.617 94.0018 188.884 93.9792 189.152 93.9566C198.733 93.1481 207.919 92.4236 214.852 93.6519C218.312 94.2649 221.157 95.3562 223.2 97.1215C225.228 98.8737 226.508 101.326 226.783 104.759C226.805 105.034 227.046 105.24 227.321 105.218C227.596 105.196 227.802 104.955 227.78 104.68C227.487 101.014 226.102 98.3071 223.854 96.3648C221.621 94.4355 218.578 93.2964 215.027 92.6672C207.938 91.4113 198.606 92.1553 189.068 92.9602C188.818 92.9812 188.569 93.0023 188.319 93.0233C178.981 93.8125 169.475 94.6158 161.535 93.6949C153.38 92.749 147.044 90.0045 144.184 83.7276C138.275 70.7571 132.008 62.2593 125.7 56.7019C119.385 51.1394 113.049 48.5404 107.036 47.339C101.719 46.2766 96.6522 46.3087 92.1208 46.3375C91.542 46.3412 90.9719 46.3448 90.4112 46.346C85.4187 46.3574 81.2301 46.178 78.015 44.3474C69.3936 39.4384 62.1853 39.7719 55.219 40.0943C53.6883 40.1651 52.1692 40.2354 50.6494 40.2494C46.4238 40.2884 42.1607 39.9027 37.5272 37.9466C32.8904 35.9891 27.846 32.4432 22.0923 26.106C21.9067 25.9015 21.5905 25.8863 21.386 26.0719Z" fill="#723946"/>
</g>
</mask>
<g mask="url(#mask0_2462_24913)">
<path d="M35.5615 51.6605C35.5615 40.6148 44.5158 31.6605 55.5615 31.6605H205.562C216.607 31.6605 225.562 40.6148 225.562 51.6605V128.66C225.562 139.706 216.607 148.66 205.562 148.66H55.5615C44.5158 148.66 35.5615 139.706 35.5615 128.66V51.6605Z" fill="#B88E98"/>
</g>
</svg>
