<svg width="23" height="18" viewBox="0 0 23 18" fill="none" xmlns="http://www.w3.org/2000/svg">
<path d="M8.99607 10.5488C8.99607 10.7342 8.94108 10.9155 8.83807 11.0697C8.73505 11.2238 8.58864 11.344 8.41733 11.4149C8.24603 11.4859 8.05753 11.5045 7.87567 11.4683C7.69381 11.4321 7.52677 11.3428 7.39565 11.2117C7.26454 11.0806 7.17525 10.9136 7.13908 10.7317C7.10291 10.5498 7.12147 10.3613 7.19243 10.19C7.26339 10.0187 7.38355 9.87231 7.53772 9.7693C7.69189 9.66629 7.87315 9.6113 8.05857 9.6113C8.30721 9.6113 8.54566 9.71007 8.72148 9.88589C8.89729 10.0617 8.99607 10.3002 8.99607 10.5488ZM14.0586 9.6113C13.8731 9.6113 13.6919 9.66629 13.5377 9.7693C13.3835 9.87231 13.2634 10.0187 13.1924 10.19C13.1215 10.3613 13.1029 10.5498 13.1391 10.7317C13.1753 10.9136 13.2645 11.0806 13.3957 11.2117C13.5268 11.3428 13.6938 11.4321 13.8757 11.4683C14.0575 11.5045 14.246 11.4859 14.4173 11.4149C14.5886 11.344 14.7351 11.2238 14.8381 11.0697C14.9411 10.9155 14.9961 10.7342 14.9961 10.5488C14.9961 10.3002 14.8973 10.0617 14.7215 9.88589C14.5457 9.71007 14.3072 9.6113 14.0586 9.6113ZM21.6614 14.3949C20.1299 15.7261 18.0677 16.7359 15.6978 17.3152C15.4095 17.3863 15.1056 17.3568 14.8365 17.2314C14.5674 17.106 14.3492 16.8923 14.2182 16.6259L13.2695 14.7286C12.5358 14.8171 11.7975 14.8614 11.0586 14.8613C10.3196 14.8614 9.5813 14.817 8.84766 14.7285L7.89891 16.626C7.76794 16.8924 7.54978 17.1061 7.28065 17.2315C7.01152 17.3569 6.70761 17.3864 6.41935 17.3153C4.04935 16.7359 1.98732 15.7261 0.455816 14.395C0.264119 14.2289 0.124311 14.0111 0.053105 13.7677C-0.0181008 13.5242 -0.0176913 13.2654 0.0542846 13.0222L3.23935 2.4054C3.29518 2.2181 3.39224 2.04567 3.52339 1.90077C3.65455 1.75588 3.81649 1.64218 3.99732 1.56802C4.92788 1.18704 5.89027 0.889005 6.87329 0.677397C7.19 0.607812 7.52126 0.657941 7.8032 0.818119C8.08515 0.978298 8.29781 1.23718 8.40019 1.54487L9.00207 3.35049C10.3688 3.19821 11.7483 3.19821 13.1151 3.35049L13.7169 1.54487C13.8194 1.23725 14.0321 0.978433 14.314 0.818269C14.5959 0.658104 14.9271 0.607924 15.2438 0.677397C16.2269 0.889037 17.1894 1.1871 18.12 1.56812C18.3008 1.64224 18.4627 1.75591 18.5938 1.90078C18.725 2.04565 18.822 2.21804 18.8778 2.4053L22.0628 13.0223C22.1348 13.2655 22.1352 13.5242 22.064 13.7676C21.9928 14.0111 21.8531 14.2288 21.6614 14.3949ZM20.9854 13.3456L17.8001 2.72855C17.7921 2.70157 17.778 2.67675 17.7591 2.6559C17.7402 2.63505 17.7168 2.61871 17.6907 2.60808C16.8216 2.25241 15.9227 1.97424 15.0046 1.7768C14.9591 1.76657 14.9113 1.77356 14.8706 1.7964C14.8299 1.81925 14.7991 1.85635 14.7841 1.90055L14.2461 3.51549C14.9269 3.63588 15.5988 3.80239 16.257 4.01387C16.3278 4.03623 16.3934 4.07239 16.4502 4.12025C16.5069 4.16811 16.5536 4.22672 16.5876 4.29272C16.6216 4.35871 16.6422 4.43078 16.6482 4.50477C16.6542 4.57876 16.6455 4.6532 16.6226 4.72381C16.5997 4.79441 16.563 4.85979 16.5147 4.91616C16.4664 4.97254 16.4074 5.0188 16.3412 5.05227C16.2749 5.08575 16.2027 5.10578 16.1287 5.11121C16.0547 5.11665 15.9803 5.10737 15.9098 5.08393C14.4531 4.61115 12.7755 4.3613 11.0586 4.3613C9.34182 4.3613 7.66435 4.61115 6.20728 5.08383C6.13685 5.10728 6.06248 5.11655 5.98845 5.11112C5.91442 5.10569 5.8422 5.08565 5.77594 5.05218C5.70969 5.0187 5.65072 4.97244 5.60243 4.91607C5.55414 4.85969 5.51748 4.79432 5.49457 4.72371C5.47167 4.6531 5.46296 4.57866 5.46896 4.50467C5.47496 4.43069 5.49554 4.35862 5.52952 4.29262C5.56351 4.22663 5.61021 4.16801 5.66695 4.12015C5.7237 4.07229 5.78935 4.03614 5.86013 4.01377C6.51842 3.80234 7.19031 3.63586 7.87116 3.51549L7.33294 1.90065C7.31791 1.85644 7.28707 1.81935 7.24636 1.79649C7.20564 1.77363 7.15792 1.76662 7.11235 1.7768C6.19431 1.97425 5.29551 2.25239 4.42641 2.60799C4.40029 2.61864 4.37689 2.635 4.35792 2.65588C4.33896 2.67676 4.32491 2.70163 4.31682 2.72865L1.13185 13.3455C1.12185 13.3813 1.12237 13.4192 1.13336 13.4548C1.14435 13.4903 1.16534 13.522 1.19382 13.5459C2.5906 14.76 4.48997 15.6855 6.68653 16.2225C6.72712 16.2314 6.76952 16.2264 6.80693 16.2083C6.84434 16.1902 6.87457 16.1601 6.89279 16.1227L7.68038 14.5473C7.06464 14.4307 6.45675 14.2759 5.86022 14.0838C5.78944 14.0615 5.72379 14.0253 5.66705 13.9775C5.61031 13.9296 5.5636 13.871 5.52962 13.805C5.49564 13.739 5.47505 13.6669 5.46905 13.5929C5.46306 13.5189 5.47176 13.4445 5.49467 13.3739C5.51757 13.3033 5.55423 13.2379 5.60252 13.1815C5.65081 13.1252 5.70978 13.0789 5.77604 13.0454C5.84229 13.012 5.91451 12.9919 5.98854 12.9865C6.06257 12.9811 6.13695 12.9903 6.20738 13.0138C7.66407 13.4865 9.34163 13.7363 11.0586 13.7363C12.7755 13.7363 14.453 13.4865 15.9097 13.0138C16.0514 12.9682 16.2055 12.9807 16.3381 13.0485C16.4707 13.1163 16.5709 13.234 16.6169 13.3756C16.6629 13.5173 16.6508 13.6714 16.5833 13.8042C16.5158 13.9369 16.3984 14.0375 16.2569 14.0838C15.6604 14.2759 15.0525 14.4307 14.4368 14.5473L15.2244 16.1227C15.2426 16.1601 15.2729 16.1902 15.3103 16.2083C15.3477 16.2265 15.3901 16.2315 15.4307 16.2226C17.6273 15.6855 19.5266 14.76 20.9234 13.5459C20.9518 13.5219 20.9728 13.4903 20.9838 13.4548C20.9947 13.4193 20.9953 13.3814 20.9853 13.3456H20.9854Z"/>
</svg>
