<svg width="20" height="20" viewBox="0 0 20 20" fill="none" xmlns="http://www.w3.org/2000/svg">
<path d="M19.4716 1.11454C19.2663 0.941712 19.0187 0.828526 18.7551 0.786985C18.4915 0.745445 18.2218 0.777099 17.9745 0.878591L0.91095 7.87307C0.635211 7.98813 0.400457 8.18562 0.237851 8.43932C0.0752446 8.69303 -0.00752238 8.99095 0.000537366 9.29354C0.00859711 9.59613 0.107102 9.88908 0.282976 10.1335C0.45885 10.3779 0.703774 10.5622 0.985234 10.662L4.66709 11.9597L6.6623 18.6573C6.66611 18.6709 6.67849 18.6796 6.6842 18.6921C6.70476 18.7456 6.73478 18.7947 6.77277 18.8372C6.8305 18.9027 6.90502 18.9505 6.98801 18.9755C6.99753 18.9793 7.0042 18.988 7.01372 18.99H7.01944L7.02229 18.9909C7.09597 19.007 7.17253 19.003 7.24419 18.9793C7.25181 18.9774 7.25943 18.9774 7.268 18.9745C7.33681 18.95 7.39907 18.9096 7.44991 18.8565C7.45562 18.8498 7.46514 18.8488 7.47086 18.843L10.3403 15.6267L14.5279 18.9194C14.7822 19.1215 15.0955 19.2308 15.4184 19.2308C16.1174 19.2308 16.7203 18.7337 16.8641 18.0404L19.9707 2.55057C20.0234 2.28762 20.0048 2.01506 19.9169 1.76199C19.829 1.50892 19.6751 1.28481 19.4716 1.11358V1.11454ZM7.70324 13.2313L7.02991 16.555L5.62517 11.8379L12.5917 8.15351L7.83276 12.9867C7.76686 13.0536 7.72181 13.1387 7.70324 13.2313ZM15.9307 17.846C15.9129 17.9337 15.8731 18.0152 15.8152 18.0828C15.7573 18.1504 15.6833 18.2017 15.6003 18.2318C15.5192 18.2635 15.4315 18.2732 15.3457 18.26C15.2598 18.2467 15.1789 18.211 15.1108 18.1564L10.5746 14.5891C10.4798 14.5147 10.3609 14.4794 10.2415 14.4902C10.1222 14.5009 10.0113 14.5569 9.93082 14.6471L7.93371 16.8819L8.60608 13.5679L15.4527 6.61497C15.5328 6.53329 15.5816 6.4252 15.5902 6.31021C15.5988 6.19521 15.5666 6.08089 15.4995 5.98786C15.4324 5.89484 15.3347 5.82924 15.2241 5.80291C15.1135 5.77657 14.9973 5.79124 14.8965 5.84426L5.02708 11.0642L1.29666 9.74716C1.19775 9.714 1.11148 9.65035 1.04986 9.56507C0.988242 9.4798 0.954333 9.37714 0.952854 9.27139C0.948109 9.1647 0.976182 9.05915 1.03318 8.96939C1.09018 8.87963 1.17328 8.81011 1.27094 8.77047L18.3317 1.77599C18.4191 1.73827 18.5151 1.72607 18.609 1.74077C18.7029 1.75546 18.7909 1.79646 18.8631 1.85915C18.9349 1.91813 18.9891 1.9962 19.0197 2.08466C19.0503 2.17311 19.0561 2.26847 19.0364 2.36007L15.9307 17.847V17.846Z"/>
</svg>
