<svg width="21" height="20" viewBox="0 0 21 20" fill="none" xmlns="http://www.w3.org/2000/svg">
<path d="M10.1171 0C7.46496 0 4.92142 1.05357 3.04606 2.92893C1.17069 4.8043 0.117126 7.34784 0.117126 10C0.117126 12.6522 1.17069 15.1957 3.04606 17.0711C4.92142 18.9464 7.46496 20 10.1171 20C12.7693 20 15.3128 18.9464 17.1882 17.0711C19.0636 15.1957 20.1171 12.6522 20.1171 10C20.1171 7.34784 19.0636 4.8043 17.1882 2.92893C15.3128 1.05357 12.7693 0 10.1171 0ZM1.35046 10.7556H4.13935C4.18379 11.7667 4.3249 12.7711 4.56157 13.7556H2.16157C1.71402 12.8121 1.4393 11.796 1.35046 10.7556ZM10.8727 4.75556V1.32222C11.9434 1.72914 12.8233 2.5218 13.3393 3.54444C13.5671 3.93 13.7682 4.33111 13.9393 4.74444L10.8727 4.75556ZM14.4505 6.25556C14.7082 7.23667 14.8616 8.24222 14.906 9.25556H10.8727V6.25556H14.4505ZM9.36157 1.32222V4.75556H6.2949C6.46631 4.34188 6.66681 3.94088 6.8949 3.55556C7.40876 2.52873 8.28889 1.73185 9.36157 1.32222ZM9.36157 6.25556V9.25556H5.33935C5.38379 8.24222 5.53713 7.23667 5.7949 6.25556H9.36157ZM4.13935 9.24444H1.35046C1.4393 8.20399 1.71402 7.18791 2.16157 6.24444H4.56157C4.32445 7.2285 4.18305 8.23317 4.13935 9.24444ZM5.33935 10.7556H9.36157V13.7556H5.7949C5.53717 12.7745 5.38446 11.7689 5.33935 10.7556ZM9.37268 15.2V18.6333C8.30192 18.2264 7.42207 17.4338 6.90602 16.4111C6.67792 16.0258 6.47742 15.6248 6.30602 15.2111L9.37268 15.2ZM10.8727 18.6333V15.2556H13.9393C13.7679 15.6692 13.5674 16.0702 13.3393 16.4556C12.8233 17.4782 11.9434 18.2709 10.8727 18.6778V18.6333ZM10.8727 13.7V10.7H14.8949C14.8498 11.7133 14.6971 12.719 14.4394 13.7H10.8727ZM16.106 10.7H18.8949C18.8061 11.7405 18.5313 12.7565 18.0838 13.7H15.6727C15.906 12.7333 16.0471 11.7478 16.0949 10.7556L16.106 10.7ZM16.106 9.2C16.0551 8.20701 15.91 7.2211 15.6727 6.25556H18.0727C18.5205 7.2 18.7949 8.21556 18.8838 9.25556L16.106 9.2ZM17.2171 4.75556H15.2282C14.8684 3.74478 14.3468 2.79914 13.6838 1.95556C15.0664 2.5762 16.2674 3.54006 17.1727 4.75556H17.2171ZM6.55046 1.95556C5.88748 2.79914 5.36588 3.74478 5.00602 4.75556H3.06157C3.96682 3.54006 5.16781 2.5762 6.55046 1.95556ZM3.05046 15.2889H5.00602C5.36588 16.2997 5.88748 17.2453 6.55046 18.0889C5.16399 17.4589 3.96262 16.4833 3.06157 15.2556L3.05046 15.2889ZM13.6727 18.0889C14.3357 17.2453 14.8573 16.2997 15.2171 15.2889H17.1727C16.2619 16.4881 15.0614 17.4363 13.6838 18.0444L13.6727 18.0889Z"/>
</svg>
