<svg width="20" height="20" viewBox="0 0 20 20" fill="none" xmlns="http://www.w3.org/2000/svg">
<g opacity="0.5">
<path d="M5 6.25H9.375V7.5H5V6.25Z" fill="#8DE7D8"/>
<path d="M17.7587 5L14.6337 1.875L13.75 2.75875L15.625 4.63375V7.5C15.6253 7.83142 15.7571 8.14917 15.9915 8.38352C16.2258 8.61787 16.5436 8.74967 16.875 8.75V15.3125C16.875 15.5611 16.7762 15.7996 16.6004 15.9754C16.4246 16.1512 16.1861 16.25 15.9375 16.25C15.6889 16.25 15.4504 16.1512 15.2746 15.9754C15.0988 15.7996 15 15.5611 15 15.3125V10C15 9.83424 14.9342 9.67527 14.8169 9.55806C14.6997 9.44085 14.5408 9.375 14.375 9.375H11.875V3.125C11.875 2.95924 11.8092 2.80027 11.6919 2.68306C11.5747 2.56585 11.4158 2.5 11.25 2.5H3.125C2.95924 2.5 2.80027 2.56585 2.68306 2.68306C2.56585 2.80027 2.5 2.95924 2.5 3.125V16.25H1.25V17.5H13.125V16.25H11.875V10.625H13.75V15.25C13.7426 15.7595 13.9101 16.2561 14.2246 16.657C14.5391 17.058 14.9815 17.3389 15.4781 17.4531C15.7972 17.521 16.1274 17.5167 16.4446 17.4406C16.7618 17.3646 17.058 17.2187 17.3117 17.0136C17.5653 16.8084 17.7699 16.5493 17.9107 16.255C18.0514 15.9607 18.1246 15.6387 18.125 15.3125V5.88375C18.1249 5.55226 17.9932 5.23437 17.7587 5ZM10.625 16.25H3.75V3.75H10.625V16.25Z" fill="#8DE7D8"/>
</g>
</svg>
