<svg width="25" height="26" viewBox="0 0 25 26" fill="none" xmlns="http://www.w3.org/2000/svg">
<path d="M15.3409 24.8654V0.2826C15.3409 0.127169 15.4688 -1.90735e-06 15.625 -1.90735e-06H17.7557C17.9119 -1.90735e-06 18.0398 0.127169 18.0398 0.2826V21.6614L24.5384 16.564C24.723 16.4191 25 16.5498 25 16.7865V19.3476C25 19.5207 24.9219 19.6832 24.7834 19.7927L17.1804 25.7556C16.4347 26.3384 15.3409 25.8121 15.3409 24.8654ZM6.96023 25.7174V4.33862L0.461648 9.43604C0.276989 9.58087 0 9.45016 0 9.21349V6.65241C0 6.47932 0.0781252 6.31683 0.21662 6.20732L7.8196 0.244431C8.56534 -0.338434 9.65909 0.187912 9.65909 1.13109V25.7174C9.65909 25.8728 9.53125 26 9.375 26H7.24432C7.08807 26 6.96023 25.8728 6.96023 25.7174Z" fill="white"/>
</svg>
